/* XPM */
static char *1is_transaction_traced[] = {
/* columns rows colors chars-per-pixel */
"6 11 50 1",
"  c #040000",
". c #040001",
"X c #060000",
"o c #070000",
"O c #070001",
"+ c #090506",
"@ c #0C0306",
"# c #0C0608",
"$ c #0B090A",
"% c #100509",
"& c #160B0F",
"* c #151112",
"= c #DACFD3",
"- c #DED3D7",
"; c #DDD4D7",
": c #E7DCE0",
"> c #ECE1E5",
", c #EDE4E7",
"< c #EDE7E9",
"1 c #EEE5E8",
"2 c #EFE6E9",
"3 c #EFEDEE",
"4 c #F0E7EA",
"5 c #F5EAEE",
"6 c #F1EFF0",
"7 c #F8EDF1",
"8 c #F8EFF2",
"9 c #F3F3F3",
"0 c #F4F2F3",
"q c #F6F0F2",
"w c #F5F3F4",
"e c #F9F0F3",
"r c #F8F2F4",
"t c #F8F4F5",
"y c #FAF4F6",
"u c #FEF3F7",
"i c #FDF4F7",
"p c #FDF7F9",
"a c #FFF6FA",
"s c #FFF7FA",
"d c #FEFAFB",
"f c #FFF9FC",
"g c #FFFBFC",
"h c #FFFBFD",
"j c #FFFBFF",
"k c #FDFDFD",
"l c #FFFCFF",
"z c #FFFDFE",
"x c #FFFDFF",
"c c #FFFEFF",
/* pixels */
"hhcchh",
"2h88c2",
"hahhac",
"-%OO#;",
"7O:>O,",
"=&a5O8",
"i@22O8",
"aOtc*8",
"++td$.",
"cccc99",
"53cck9"
};
