/* XPM */
static char *1is_traced[] = {
/* columns rows colors chars-per-pixel */
"5 11 37 1",
"  c #040000",
". c #100509",
"X c #3C272E",
"o c #4E373F",
"O c #4F3C42",
"+ c #56474C",
"@ c #59464C",
"# c #614A52",
"$ c #634E55",
"% c #6B545C",
"& c #DAC9CF",
"* c #E5D4DA",
"= c #EAD7DD",
"- c #ECD5DD",
"; c #EADEE2",
": c #F2DDE4",
"> c #F4DDE5",
", c #F2E7EB",
"< c #F2E9EC",
"1 c #FAE5EC",
"2 c #F9EAEF",
"3 c #F7ECF0",
"4 c #FDEEF3",
"5 c #FFEEF4",
"6 c #FFEFF5",
"7 c #F8F4F5",
"8 c #FFF1F7",
"9 c #FFF2F8",
"0 c #FFF6F9",
"q c #FFF6FA",
"w c #FFF7FD",
"e c #FFF9FF",
"r c #FFFBFF",
"t c #FFFDFE",
"y c #FFFDFF",
"u c #FEFEFE",
"i c #FFFEFF",
/* pixels */
"r;r,q",
"985r5",
"#oX$@",
"->%:=",
"15O*2",
"w&+r2",
"rr.<u",
"qu 7u",
"uuuru",
"uuuuu",
"uuuuu"
};
