/* XPM */
static char *acquire_analysis[] = {
/* columns rows colors chars-per-pixel */
"19 16 19 1",
"  c black",
". c #040404",
"X c gray25",
"o c #3333FF",
"O c #3366FF",
"+ c #6666FF",
"@ c #6699CC",
"# c #FF3300",
"$ c #FF6633",
"% c #FF9933",
"& c #FF9966",
"* c yellow",
"= c #9999CC",
"- c #FFCC99",
"; c #EFD6C6",
": c #E7E7D6",
"> c #FFFFCC",
", c gray100",
"< c None",
/* pixels */
"<<<.>>>>>>>>>>>>>>:",
"<<<.>>>>#>>>>>>>>>X",
"<<<.>>>#&#>>>>>>>>X",
"<<<.>>#%-%#>>>>###X",
"<<<.***;,>&#>>#%--X",
"*****.**,>>-##$>>>X",
"*......**>>:-->>>>X",
"*.......*>>>>>>>>>X",
"*......**o>>>>>o:>X",
"*****.**o+o>>:o=o>X",
"<<<.***o+:@o>o=:+oX",
"<<<.oooO>>:@o=>>>=X",
"<<<.:::>>>>:=:>>>:X",
"<<<.>>>>>>>>>>>>>>X",
"<<<...............X",
"<<<<XXXXXXXXXXXXXXX"
};
