/* XPM */
static char *acquire_and_trace[] = {
/* columns rows colors chars-per-pixel */
"18 16 7 1",
"  c black",
". c red",
"X c yellow",
"o c #C6C742",
"O c #8C8E8C",
"+ c #BDBEBD",
"@ c #C6C3C6",
/* pixels */
"@@@               ",
"@@@ o  oooo  oooo ",
"@@@ o  o  o  o    ",
"@@@ oooo  oooo    ",
"@@@ XXX           ",
"XXXXX XX .....  . ",
"X      XX.   .  . ",
"X       X.   .... ",
"X      XX         ",
"XXXXX XX          ",
"@@@ XXXXXXX  XXXX ",
"@@@    X  X  X    ",
"@@@ XXXX  XXXX    ",
"@@@               ",
"@@@               ",
"@@@+OOOOOOOOOOOOOO"
};
