/* XPM */
static char *acquire_analysis_all[] = {
/* columns rows colors chars-per-pixel */
"25 16 31 1",
"  c black",
". c #040404",
"X c gray30",
"o c gray40",
"O c #777777",
"+ c #330099",
"@ c #3333FF",
"# c #3366CC",
"$ c #3366FF",
"% c #666699",
"& c #6666FF",
"* c #6699CC",
"= c #800000",
"- c #CC3300",
"; c #FF3300",
": c #999966",
"> c #FF9933",
", c #FF9966",
"< c yellow",
"1 c #FFCC66",
"2 c gray59",
"3 c #ADA990",
"4 c #9999CC",
"5 c #FFCC99",
"6 c #C0C0C0",
"7 c gray80",
"8 c #EFD6C6",
"9 c #E7E7D6",
"0 c #FFFFCC",
"q c gray100",
"w c None",
/* pixels */
"www.000000000000000wwwwww",
"www.0000;0000000002wwwwww",
"www.000;,;000000002wwwwww",
"www.00;>5>;0000;;;2wwwwww",
"www.<<<8q0,;00=..12w..w..",
"<<<<<.<<q005;-...62w..w..",
"<......<<0095:.2.22w..w..",
"<.......<0000XX9.X2w..w..",
"<......<<@007.3@O.ww..w..",
"<<<<<.<<@&@02.....2w..w..",
"www.<<<@&9*@.+49#.ow..w..",
"www.@@@$009*.%009..w..w..",
"www.999000094900092wwwwww",
"www.000000000000002wwwwww",
"www...............2wwwwww",
"wwww222222222222222wwwwww"
};
