/* XPM */
static char *add_analysis_browser[] = {
/* columns rows colors chars-per-pixel */
"19 18 5 1",
"  c black",
". c #808080",
"X c #C0C0C0",
"o c gray100",
"O c None",
/* pixels */
"OOOOOOOOOOOOOOOOOOO",
"O                 .",
"O oooo XXXXXXXXXX .",
"O oooo XXXXXXXXXX .",
"O oooo XXXXXXXXXX .",
"O oooo XXXXXXXXXX .",
"O oooo XXXXXXXXXX .",
"O oooo XXXXXXXXXX .",
"O oooo XXXXXXXXXX .",
"O oooo XXXXXXXXXX .",
"O oooo XXXXXXXXXX .",
"O oooo XXXXXXXXXX .",
"O oooo XXXXXXXXXX .",
"O oooo            .",
"O oooo XXXXXXXXXX .",
"O oooo XXXXXXXXXX .",
"O                 .",
"O.................."
};
