/* XPM */
static char *magick[] = {
/* columns rows colors chars-per-pixel */
"16 16 7 1",
"  c Gray0",
". c #7eb8f1",
"X c Red",
"o c Magenta",
"O c Gray75",
"+ c #d7d6d7",
"@ c #f7fcdd",
/* pixels */
" @@@@@@@@@@@@@@O",
" @@@@@     @@@@+",
" @@@@ ..... @@@+",
" X@@ ....... @@+",
" oX ......... @+",
" @oX.....X... @+",
" @ oX...XoX... +",
" @ .oX.Xo.oX.. +",
" @@ .oXo...oXXX+",
" @@ ..o.....ooo+",
" @@@ ....... @@+",
" @@@@ ..... @@@+",
" @@@@@     @@@@+",
" @@@@@@@@@@@@@@+",
"               +",
"O+++++++++++++++"
};
