/* XPM */
static char *add_browser[] = {
/* columns rows colors chars-per-pixel */
"19 18 4 1",
"  c black",
". c #808080",
"X c #C0C0C0",
"o c gray100",
/* pixels */
"ooooooooooooooooooX",
"o                 .",
"o oooo XXXXXXXXXX .",
"o oooo XXXXXXXXXX .",
"o oooo XXXXXXXXXX .",
"o oooo XXXXXXXXXX .",
"o oooo XXXXXXXXXX .",
"o oooo XXXXXXXXXX .",
"o oooo XXXXXXXXXX .",
"o oooo XXXXXXXXXX .",
"o oooo XXXXXXXXXX .",
"o oooo XXXXXXXXXX .",
"o oooo XXXXXXXXXX .",
"o                 .",
"o XXXXXXXXXXXXXXX .",
"o XXXXXXXXXXXXXXX .",
"o                 .",
"X.................."
};
