/* XPM */
static char *add_editor[] = {
/* columns rows colors chars-per-pixel */
"19 18 4 1",
"  c black",
". c #808080",
"X c #C0C0C0",
"o c gray100",
/* pixels */
"ooooooooooooooooooX",
"o                 .",
"o XXX ooooooooooo .",
"o XXX ooooooooooo .",
"o XXX ooooooooooo .",
"o XXX ooooooooooo .",
"o XXX ooooooooooo .",
"o XXX ooooooooooo .",
"o XXX ooooooooooo .",
"o XXX ooooooooooo .",
"o XXX ooooooooooo .",
"o XXX ooooooooooo .",
"o XXX ooooooooooo .",
"o                 .",
"o XXXXXXXXXXXXXXX .",
"o XXXXXXXXXXXXXXX .",
"o                 .",
"X.................."
};
