/* XPM */
static char *magick[] = {
/* columns rows colors chars-per-pixel */
"16 16 42 1",
"  c Gray0",
". c #3b11ea",
"X c #4d5de9",
"o c #5368e9",
"O c #566be8",
"+ c #5c78e8",
"@ c #7594e6",
"# c #7298e7",
"$ c #f93008",
"% c #f93308",
"& c #f93508",
"* c #f93608",
"= c #f93b08",
"- c #f94208",
"; c #f94508",
": c #f97623",
"> c #f97d2d",
", c #f88233",
"< c #f9873a",
"1 c #f88f45",
"2 c #f89046",
"3 c #f8934b",
"4 c #f89751",
"5 c #f8a96a",
"6 c #83abe7",
"7 c #87afe7",
"8 c #f8be86",
"9 c #f7cf9e",
"0 c #f7e3bb",
"q c #d7d6d7",
"w c #e7efde",
"e c #ece9d8",
"r c #ebf0dd",
"t c #f7eac4",
"y c #f7eec9",
"u c #f7f2d0",
"i c #f7f7d6",
"p c #f1f1dd",
"a c #f3f8dd",
"s c #f6fadd",
"d c #f6fbdd",
"f c #f7fcdd",
/* pixels */
" ffffffffffffffe",
" ffff$fffffffffq",
" fff$5-ffffffffq",
" ff&193=ifff$$$q",
" $%>0ff4&ff*<88q",
" 2,fffff8;$:fffq",
" utfffffy88ffffq",
" ffffffffffffffq",
" fffff.fffff.pfq",
" ffff.O.sfw.6.dq",
" fff.+w#.f.7wo.q",
" ...Xffr@.6fff6q",
" wwwfffaw6wfffwq",
" ffffffffffffffq",
"               q",
"eqqqqqqqqqqqqqqq"
};
