/* XPM */
static char *analysis_remove_all[] = {
/* columns rows colors chars-per-pixel */
"28 16 20 1",
"  c black",
". c #040404",
"X c gray30",
"o c gray40",
"O c #777777",
"+ c #666699",
"@ c #999966",
"# c yellow",
"$ c gray59",
"% c #ADA990",
"& c #9999CC",
"* c #C0C0C0",
"= c gray80",
"- c #D7D6D7",
"; c #E7E7D6",
": c #E7EFDE",
"> c #EBF0DD",
", c #FFFFCC",
"< c #F3F8DD",
"1 c None",
/* pixels */
"11111 ,,,,,,,,,,,,,,11111111",
"11111 ,,,,*,,,,,,,,,-1111111",
"11111 ,,,***,,,,,,,,-1111111",
"11111 ,,**,**,,,,***-1111111",
"11### ***,,,**,,*..*-1..1..1",
"1##.#####,,,,***...*-1..1..1",
"##......#,,,,;*@.$.$-1..1..1",
"#.......#,,,,,,XX;.X-1..1..1",
"##......#,,*,,=.%*O.*1..1..1",
"1##.#####,***,$.....$1..1..1",
"11### ,,,**:**.*&;*.o1..1..1",
"11111 ****,,>*.+,,;..-..1..1",
"11111 :::,,,<;&;,,,;-1111111",
"11111 ,,,,,,,,,,,,,,-1111111",
"11111        .......-1111111",
"111111---------------1111111"
};
