/* XPM */
static char *arrow[]={
"7 16 34 1",
"k c #000000",
"p c #010101",
"l c #020202",
"m c #040404",
"q c #050505",
"v c #121212",
"t c #b0b0b0",
"y c #b2b2b2",
"u c #b6b6b6",
"z c #b7b7b7",
"r c #b8b8b8",
"n c #bababa",
"# c #bbbbbb",
"g c #bcbcbc",
"x c #bdbdbd",
"F c #bebebe",
"w c #bfbfbf",
"d c #c0c0c0",
"c c #c1c1c1",
"b c #c2c2c2",
"a c #c3c3c3",
"e c #c4c4c4",
". c #c5c5c5",
"D c #c6c6c6",
"f c #c7c7c7",
"j c #c8c8c8",
"B c #c9c9c9",
"E c #cacaca",
"i c #cbcbcb",
"o c #cdcdcd",
"h c #cecece",
"C c #cfcfcf",
"A c #d1d1d1",
"s c #d6d6d6",
".#aaabc",
"deaaabc",
"c.aaabc",
"fgaaabc",
"#haaabc",
"idaaabc",
"jdaaabc",
"akkklmn",
"aopqkrs",
"tnuvwaf",
".xiy.wz",
"e.cuabw",
"wdeAcgB",
"jewtCa#",
"DwaEwed",
"Fbdcaaa"};
