/* XPM */
static char *back[]={
"16 16 85 2",
".T c None",
".6 c #0f0f0f",
"#f c #1e1e1e",
".X c #202020",
"#. c #212121",
".4 c #2c2c2c",
".O c #2d2d2d",
".5 c #2f2f2f",
".q c #323232",
".y c #404040",
"#g c #414141",
"## c #424242",
"#m c #494949",
".3 c #4b4b4b",
".1 c #4c4c4c",
".7 c #4d4d4d",
".9 c #4f4f4f",
"#b c #515151",
".I c #555555",
".e c #565656",
"#l c #575757",
"#e c #585858",
".8 c #5a5a5a",
"#c c #5e5e5e",
".R c #5f5f5f",
"#a c #636363",
".0 c #6c6c6c",
"#d c #707070",
".N c #767676",
".p c #787878",
".W c #8b8b8b",
".L c #8c8c8c",
".2 c #919191",
".x c #969696",
".d c #979797",
".M c #999999",
".C c #9b9b9b",
".K c #a2a2a2",
".J c #a6a6a6",
".z c #a9a9a9",
"#p c #aaaaaa",
".E c #adadad",
".w c #aeaeae",
".G c #afafaf",
".m c #b0b0b0",
"#s c #b1b1b1",
".s c #b2b2b2",
".Z c #b3b3b3",
".B c #b4b4b4",
".o c #b5b5b5",
".t c #b6b6b6",
"#k c #b7b7b7",
"#n c #b8b8b8",
".i c #b9b9b9",
".l c #bababa",
".# c #bbbbbb",
".F c #bcbcbc",
".D c #bdbdbd",
".a c #bebebe",
".b c #bfbfbf",
".g c #c0c0c0",
"Qt c #c1c1c1",
".j c #c2c2c2",
".n c #c3c3c3",
".c c #c4c4c4",
".S c #c5c5c5",
".h c #c6c6c6",
".k c #c7c7c7",
"#j c #c8c8c8",
"#r c #c9c9c9",
".v c #cacaca",
".u c #cbcbcb",
"#o c #cdcdcd",
".f c #cecece",
"#i c #cfcfcf",
".Y c #d0d0d0",
".Q c #d1d1d1",
".r c #d2d2d2",
".V c #d4d4d4",
"#q c #d5d5d5",
".P c #d6d6d6",
".A c #d7d7d7",
".U c #e2e2e2",
"#h c #ebebeb",
".H c #f2f2f2",
"QtQtQtQtQtQtQtQtQtQtQtQtQtQtQtQt",
".#.#.#.#.#.#.#.#.#.#.#.#.#.#.#.#",
"QtQtQtQtQtQtQtQtQtQtQtQtQtQtQtQt",
".a.b.a.c.c.b.d.e.f.a.g.h.#.h.i.j",
".k.c.l.m.n.o.p.q.r.l.s.b.j.h.j.t",
".o.i.u.v.o.w.x.y.z.#.A.B.a.C.k.D",
".E.F.u.s.G.H.#.I.J.K.L.M.N.O.#.P",
".b.Q.s.R.S.T.U.v.c.Q.r.V.W.X.F.i",
".a.Y.Z.0.1.m.2.3.3.3.4.3.5.6.l.i",
".t.g.n.i.7.8.9#.##.e#a#b#c#d.g.i",
".hQt.b.u.P#e#f#g#h#i#j.QQt.P.b.l",
".g.g.g.g.k#k#l#m#n.Q.z.g.g.g.g.g",
".a.a.a.a.n#o.B#p.c.S.b#q.a.a.a.a",
".D.D.D.D.##k.S.u.l#n.D.s.D.D.D.D",
".n.n.n.n.u.t.D#j.j#r.v#s.n.n.n.n",
".#.#.#.#.#.b.F.l.F.F.b.h.#.#.#.#"};
