/* XPM */
static char *magick[] = {
/* columns rows colors chars-per-pixel */
"28 23 95 2",
"   c Gray0",
".  c #000400",
"X  c #000008",
"o  c #000408",
"O  c #000800",
"+  c #080000",
"@  c #080008",
"#  c #080408",
"$  c Gray3",
"%  c #080810",
"&  c #100000",
"*  c #180000",
"=  c #180400",
"-  c #180008",
";  c #100810",
":  c #100c10",
">  c #210000",
",  c #210808",
"<  c #290000",
"1  c #290800",
"2  c #310000",
"3  c #420000",
"4  c #520000",
"5  c #8c1021",
"6  c #9c1c31",
"7  c #9c2818",
"8  c #842021",
"9  c #9c2421",
"0  c #943421",
"q  c #943839",
"w  c #bd0800",
"e  c #bd0410",
"r  c #bd0c10",
"t  c #b51810",
"y  c #b51c10",
"u  c #b51818",
"i  c #bd1418",
"p  c #a51c29",
"a  c #b51829",
"s  c #bd1421",
"d  c #bd1c29",
"f  c #a52021",
"g  c #b53442",
"h  c #ce0800",
"j  c #ce1018",
"k  c #ce1818",
"l  c #de1018",
"z  c #ce0c21",
"x  c #ce1829",
"c  c #d61c21",
"v  c #ce2029",
"b  c #e70000",
"n  c #e70c10",
"m  c #ef0c18",
"M  c #f71410",
"N  c #808080",
"B  c #848684",
"V  c #bdbabd",
"C  c #bdbebd",
"Z  c #c6babd",
"A  c #c6bec6",
"S  c #ffc3ce",
"D  c #ffc3d6",
"F  c #ffcfd6",
"G  c #ffcfde",
"H  c #ffd3de",
"J  c #ffdfef",
"K  c #fff7de",
"L  c #e7e7ef",
"P  c #efe7e7",
"I  c #eff7f7",
"U  c #eff7ff",
"Y  c #effbf7",
"T  c #effbff",
"R  c #efffff",
"E  c #f7ebef",
"W  c #ffefef",
"Q  c #ffeff7",
"!  c #fff7e7",
"~  c #fff7ef",
"^  c #ffffe7",
"/  c #ffffef",
"(  c #f7f3f7",
")  c Gray97",
"_  c #f7f3ff",
"`  c #f7f7ff",
"'  c #f7fff7",
"]  c #f7fbff",
"[  c #f7ffff",
"{  c #fff3f7",
"}  c #fff7f7",
"|  c #fff7ff",
" . c #fffbf7",
".. c #fffbff",
"X. c White",
/* pixels */
"C C C C C C C C C C C C C C C C C C C C C C C C C C C V ",
"C C C C V C C C C C C C C C C C C C C C C C C C C C C C ",
"C C C C V C C C C C C C C C C C C C C C C C C C C C C C ",
"C C C C A C C C C C C C C C C C C C C C C C C C C C C C ",
"C C C C C C C C C C C C C C C C C C C C C C C C C C C C ",
"C C C C C C V C C C C C C C C C C C C V C C C C C C C C ",
"C C C C C C #     ;                     %   C C C C C C ",
"C C C C C C + } ..Q | .._ X.` ` ....X.I [ o C C C C C C ",
"C C C C C C   ..+ | @ + ;   : X @ @   % X.  C C C C C C ",
"C C C C C C   ..| ..` X.L ..E ..) { .. .P   C C C C C C ",
"C C C C C C X (   T o     = ~ > 2 2 2 2 Q - C C C C C C ",
"C C C C C C   [ R [ ' / ^ K 2 7 t w c a 4 < C C C C C C ",
"C C C C C C X T . Y O   ! 2 0 y h M n x 6 < C C C C C C ",
"C C C C C C o X.X.] ..{ Q 3 5 H v S e G 8 1 C C C C C C ",
"C C C C C C   X.X X.X & J 3 g D s S j F q & C C C C C C ",
"C C C C C C   U X...W W W 2 9 i l b m z p < C C C C C C ",
"C C C C C C $ $   + & , * < 3 f u k r d 4 * C C C C C C ",
"C C C C C C V B N N N N N N N & * * < < C C C C C C C C ",
"C C C C C C C C C C C C C C C C C C C C C C C C C C C C ",
"C C C C C C C C C C C C C C C C C C C C C C C C C C C C ",
"C C C C C C C C C C C C C C C C C C C C C C C C C C C C ",
"C C C C C C C C C C C C C C C C C C C C C C C C C C C C ",
"C C C C C C C C C C C C C C C C C C C C C C C C C C C Z "
};
