/* XPM */
static char *magick[] = {
/* columns rows colors chars-per-pixel */
"14 13 8 1",
"  c Gray0",
". c Red",
"X c #8d8d8d",
"o c Gray75",
"O c #ff9995",
"+ c #feaf8f",
"@ c #c9d3f2",
"# c White",
/* pixels */
"ooo       oooo",
"oo OOOOOOO ooo",
"o OO....... oo",
" OO......... o",
" O.#.#.#.#.. X",
" O.#.#.    . X",
" +.#.# @ @@  X",
" +.#. @@ @@@ X",
" +... @@ @@@ X",
"o ... @@ @@@ o",
"oo .. @@@@@@ o",
"ooo    @@@@ oo",
"ooooXXX    ooo"
};
