/* XPM */
static char *magick[] = {
/* columns rows colors chars-per-pixel */
"19 17 115 2",
"   c Gray0",
".  c Gray1",
"X  c #050504",
"o  c #0b0000",
"O  c #0d0d02",
"+  c #0a0a09",
"@  c #0a0b0a",
"#  c #0e0d0c",
"$  c #0f0f0e",
"%  c #100c0b",
"&  c #121207",
"*  c #151406",
"=  c #10100a",
"-  c #17170e",
";  c #1a190a",
":  c #131312",
">  c #1d1c10",
",  c #1a1a19",
"<  c #1b1a18",
"1  c #240303",
"2  c #340707",
"3  c #380606",
"4  c #3c0807",
"5  c #390a09",
"6  c #3d1414",
"7  c #212400",
"8  c #20200e",
"9  c #2f2e02",
"0  c #353500",
"q  c #393905",
"w  c #3d3d00",
"e  c #3e3e00",
"r  c #3a3935",
"t  c #500000",
"y  c #550000",
"u  c #580000",
"i  c #590404",
"p  c #5d0102",
"a  c #404005",
"s  c #454602",
"d  c #4a4a00",
"f  c #525200",
"g  c #585800",
"h  c #585801",
"j  c #41403c",
"k  c #44433e",
"l  c #4b433f",
"z  c #474646",
"x  c #4a4142",
"c  c #4e4b45",
"v  c #4d4d47",
"b  c #4f4e48",
"n  c Gray30",
"m  c #4e4e4e",
"M  c #4e4f4f",
"N  c #484650",
"B  c #504742",
"V  c #52524b",
"C  c #55544e",
"Z  c #59584e",
"A  c #515252",
"S  c #575653",
"D  c #515a59",
"F  c #595852",
"G  c #5b5a53",
"H  c #5d5b55",
"J  c #5c5d56",
"K  c #605d56",
"L  c #605f58",
"P  c #616159",
"I  c #62615e",
"U  c #676659",
"Y  c #6c6a5c",
"T  c #656366",
"R  c #656667",
"E  c #707071",
"W  c #737273",
"Q  c #727274",
"!  c #777374",
"~  c #7e7c70",
"^  c #787b7c",
"/  c #7e7e7f",
"(  c #7e8a8a",
")  c #817f83",
"_  c #8d8e00",
"`  c #939400",
"'  c #9a9a00",
"]  c #9d9d00",
"[  c #9f9f00",
"{  c #a2a200",
"}  c #afaf00",
"|  c #868379",
" . c #848387",
".. c #8d8b80",
"X. c #908e83",
"o. c #938f86",
"O. c #939187",
"+. c #91968c",
"@. c #969489",
"#. c #9e9c8d",
"$. c #9e9c91",
"%. c #9da296",
"&. c #9ea397",
"*. c #a09e93",
"=. c #a0a396",
"-. c #a4a296",
";. c #a2a599",
":. c #aca99d",
">. c #afac9f",
",. c #adb3a5",
"<. c #b0aea1",
"1. c #b2b1a4",
"2. c #b7b5a7",
"3. c #b8b6a9",
"4. c None",
/* pixels */
"4.4.4.4.4.4.4.4.4.4.4.4.4.4.4.4.4.4.4.",
"4.4.4.4.4.4.4.4.O.= 8 - S 4.4.4.4.4.4.",
"4.4.4.4.4.4.4.>.< 9 _ f O > U 4.4.4.4.",
"4.4.4.2., $ V 4.4.#.; w ' ` s T 4.4.4.",
"4.4.4.4.$.  j 4.4.4. .7 { } d N 4.4.4.",
"4.:.r 4.-.  k 4.4.4.o.o 0 [ g * Y 4.4.",
"4.<.  @ X . v 4.4.+.4 p : & e ] a W 4.",
"4.3.$ + # z / P =.3 t H 4.) q h I 4.4.",
"4.4.4.4.4.*.M ( 6 y J 4.4.4.~ Z 4.4.4.",
"4.4.4.4.4.4.| x ! l 4.4.4.4.4.4.4.4.4.",
"4.4.4.4.4.&.5 i D ^ G 4.4.4.4.4.4.4.4.",
"4.4.4.4.%.2 y K *.n Q F 4.4.4.4.4.4.4.",
"4.4.4.;.2 y b 4.4.X.m E H 4.4.4.4.4.4.",
"4.4.,.1 u c 4.4.4.4...A R C 4.4.4.4.4.",
"4.4.1.% B 4.4.4.4.4.4.@., L 4.4.4.4.4.",
"4.4.4.4.4.4.4.4.4.4.4.4.4.4.4.4.4.4.4.",
"4.4.4.4.4.4.4.4.4.4.4.4.4.4.4.4.4.4.4."
};
