/* XPM */
static char *magick[] = {
/* columns rows colors chars-per-pixel */
"21 18 105 2",
"   c Gray0",
".  c Gray1",
"X  c #050504",
"o  c #0b0000",
"O  c #0d0d02",
"+  c #0a0a09",
"@  c #0a0b0a",
"#  c #0e0d0c",
"$  c #0f0f0e",
"%  c #121207",
"&  c #151406",
"*  c #10100a",
"=  c #17170e",
"-  c #1a190a",
";  c #131312",
":  c #1d1c10",
">  c #1b1a18",
",  c #1b1b19",
"<  c #340707",
"1  c #380606",
"2  c #3c0807",
"3  c #390a09",
"4  c #3d1414",
"5  c #212400",
"6  c #20200e",
"7  c #2f2e02",
"8  c #353500",
"9  c #393905",
"0  c #3d3d00",
"q  c #3e3e00",
"w  c #3a3935",
"e  c #500000",
"r  c #550000",
"t  c #590404",
"y  c #5d0102",
"u  c #404005",
"i  c #454602",
"p  c #4a4a00",
"a  c #525200",
"s  c #585800",
"d  c #585801",
"f  c #41403c",
"g  c #44433e",
"h  c #4b433f",
"j  c #474646",
"k  c #4a4142",
"l  c #4d4d47",
"z  c #4f4e48",
"x  c Gray30",
"c  c #4e4e4e",
"v  c #4e4f4f",
"b  c #484650",
"n  c #52524b",
"m  c #59584e",
"M  c #575653",
"N  c #515a59",
"B  c #595852",
"V  c #5b5a53",
"C  c #5d5b55",
"Z  c #5c5d56",
"A  c #605d56",
"S  c #616159",
"D  c #62615e",
"F  c #676659",
"G  c #6c6a5c",
"H  c #656366",
"J  c #707071",
"K  c #737273",
"L  c #727274",
"P  c #777374",
"I  c #7e7c70",
"U  c #787b7c",
"Y  c #7c7c7c",
"T  c #7e7e7f",
"R  c #7e8a8a",
"E  c #817f83",
"W  c #8d8e00",
"Q  c #939400",
"!  c #9a9a00",
"~  c #9d9d00",
"^  c #9f9f00",
"/  c #a2a200",
"(  c #afaf00",
")  c #868379",
"_  c #848387",
"`  c Gray55",
"'  c #908e83",
"]  c #938f86",
"[  c #939187",
"{  c #91968c",
"}  c #9e9c8d",
"|  c #9e9c91",
" . c #9a9a9a",
".. c #9da296",
"X. c #9ea397",
"o. c #a09e93",
"O. c #a0a396",
"+. c #a4a296",
"@. c #a2a599",
"#. c #afac9f",
"$. c #a7a7a7",
"%. c #b7b5a7",
"&. c Gray78",
"*. c #e1e1e1",
"=. c None",
/* pixels */
"=.=.=.=.=.=.=.=.=.=.=.[ * 6 = M =.=.=.=.=.",
"=.=.=.=.=.=.=.=.=.=.#.> 7 W a O : F =.=.=.",
"=.=.=.=.=.=.%., $ n =.=.} - 0 ! Q i H =.=.",
"=.=.=.=.=.=.=.|   f =.=.=._ 5 / ( p b =.=.",
"=.=.=.=.=.w =.+.  g =.=.=.] o 8 ^ s & G =.",
"=.=.=.=.=.  @ X . l =.=.{ 2 y ; % q ~ u K ",
"=.=.=.=.=.$ + # j T S O.1 e C =.E 9 d D =.",
"=.=.=.=.=.=.=.=.o.v R 4 r Z =.=.=.I m =.=.",
"=.=.=.=.=.=.=.=.=.) k P h =.=.=.=.=.=.=.=.",
"=.=.=.=.=.=.=.=.X.3 t N U V =.=.=.=.=.=.=.",
"            =...< r A o.x L B =.=.=.=.=.=.",
"=.=.    =.=.@.< r z =.=.' c J C =.=.=.=.=.",
"=.=.    =.    Y Y =.$.     .=.=.$.     .=.",
"=.=.    =.    *.=.$.  =.=.  ` $.  =.=.  ` ",
"=.=.    =.    =.=.                        ",
"=.=.    =.    =.=.    =.=.=.=.    =.=.=.=.",
"=.=.    =.    =.=. .  &.=.  `  .  &.=.  ` ",
"=.=.    =.    =.=.=.$.    ` =.=.$.    ` =."
};
