/* XPM */
static char *magick[] = {
/* columns rows colors chars-per-pixel */
"16 20 7 1",
"  c Gray0",
". c Gray3",
"X c #101018",
"o c #101c21",
"O c #808080",
"+ c #c0c0c0",
"@ c White",
/* pixels */
"OOOOOOOOOO +++++",
"O@@@@@@@@@  ++++",
"O@@@@      @ +++",
"O@@      @ @@ ++",
"O@     .@@     +",
"O      @@@@@@@ O",
"@       @ @  @ O",
"         @@@@@ O",
"   @@@ o  @@ @ O",
"  X@@@@    @@@ O",
"@@@@@@@@    @@ O",
"O@   @@@@    @ O",
"O@   @@@@@     O",
"O@@ @   @@@    O",
"O@@ @   @@@@    ",
"O@@ @@@@   @@   ",
"O@@ @@@@   @@@@O",
"O@@@@@@@@@@@@@@O",
"O               ",
"+OOOOOOOOOOOOOOO"
};
