/* XPM */
static char *magick[] = {
/* columns rows colors chars-per-pixel */
"16 16 215 2",
"   c #03003e",
".  c #030042",
"X  c #030047",
"o  c #04004f",
"O  c #03084e",
"+  c #040051",
"@  c #00115a",
"#  c #04175e",
"$  c #040060",
"%  c #04006d",
"&  c #05066a",
"*  c #040e67",
"=  c #030b72",
"-  c #151c61",
";  c #03235c",
":  c #00385b",
">  c #003a5e",
",  c #003f5e",
"<  c #024563",
"1  c #004666",
"2  c #004169",
"3  c #004d77",
"4  c #044971",
"5  c #004c78",
"6  c #005076",
"7  c #00517b",
"8  c #00537c",
"9  c #00547e",
"0  c #07567d",
"q  c #005a7a",
"w  c #105b7c",
"e  c #0c6b55",
"r  c #1d7f6a",
"t  c #02008d",
"y  c #010192",
"u  c #00119c",
"i  c #00139d",
"p  c #00149f",
"a  c #0000a3",
"s  c #0000a5",
"d  c #0000a7",
"f  c #0001a9",
"g  c #0002aa",
"h  c #000fa4",
"j  c #0014a1",
"k  c #0014a2",
"l  c #0017a5",
"z  c #0016a7",
"x  c #0014aa",
"c  c #0015ac",
"v  c #0019ab",
"b  c #001aaf",
"n  c #005482",
"m  c #005588",
"M  c #005789",
"N  c #00558e",
"B  c #005f82",
"V  c #005f8a",
"C  c #005a92",
"Z  c #006083",
"A  c #00638e",
"S  c #00648e",
"D  c #00609b",
"F  c #00619c",
"G  c #00619e",
"H  c #0b6490",
"J  c #0f779c",
"K  c #186180",
"L  c #186988",
"P  c #006aa2",
"I  c #006cb0",
"U  c #006cb7",
"Y  c #076db0",
"T  c #0073a3",
"R  c #0074a5",
"E  c #0076a4",
"W  c #0072ae",
"Q  c #0074ac",
"!  c #007bae",
"~  c #007caf",
"^  c #0073be",
"/  c #007abc",
"(  c #256e8a",
")  c #266c8b",
"_  c #296b89",
"`  c #28698d",
"'  c #2a6c91",
"]  c #2b7995",
"[  c #326d87",
"{  c #3d738f",
"}  c #007cc3",
"|  c #3362c1",
" . c #386bc2",
".. c #46718a",
"X. c #048c6e",
"o. c #049572",
"O. c #30aa77",
"+. c #32b07a",
"@. c #0081af",
"#. c #0789b6",
"$. c #11b3a5",
"%. c #3c819c",
"&. c #27ae86",
"*. c #2ba782",
"=. c #2fa589",
"-. c #2fa58a",
";. c #2fa78b",
":. c #2fa885",
">. c #2fa987",
",. c #2fa888",
"<. c #2fa88a",
"1. c #30a285",
"2. c #31ab87",
"3. c #32ab8c",
"4. c #30a192",
"5. c #30a19a",
"6. c #35af95",
"7. c #32bb85",
"8. c #36bd88",
"9. c #33a2a4",
"0. c #31a6a2",
"q. c #0083c4",
"w. c #008bc3",
"e. c #008ccb",
"r. c #008fc9",
"t. c #008ece",
"y. c #008fd0",
"u. c #0094c7",
"i. c #0090ca",
"p. c #0095d3",
"a. c #009dd4",
"s. c #00a0d8",
"d. c #16a5dc",
"f. c #0fcaa6",
"g. c #35c38d",
"h. c #35c392",
"j. c #538198",
"k. c #5a869e",
"l. c #4594b6",
"z. c #618da5",
"x. c #6f8fa4",
"c. c #6f97af",
"v. c #6597b1",
"b. c #6f9db3",
"n. c #779bb0",
"m. c #6eb1be",
"M. c #72a0b5",
"N. c #6bafc9",
"B. c #70afc7",
"V. c #77b1cb",
"C. c #62bee4",
"Z. c #56ceb8",
"A. c #8688a1",
"S. c #9a9db6",
"D. c #8abbd8",
"F. c #adbec8",
"G. c #8cd7b2",
"H. c #92dbbb",
"J. c #97ddbe",
"K. c #83c8c5",
"L. c #90c3df",
"P. c #94d3e2",
"I. c #9fd1e8",
"U. c #a3c8d8",
"Y. c #a3d7ce",
"T. c #a2d9c9",
"R. c #a2d9ca",
"E. c #aadccf",
"W. c #a2d1da",
"Q. c #b6c8d1",
"!. c #beccd2",
"~. c #bfced5",
"^. c #a2cae6",
"/. c #a2cce4",
"(. c #a5cde8",
"). c #afd7e7",
"_. c #b8d6e2",
"`. c #bed6e2",
"'. c #bfd8e3",
"]. c #ace1cc",
"[. c #c1ced4",
"{. c #c3d1d7",
"}. c #c5d4db",
"|. c #cbdae0",
" X c #cedce2",
".X c #d9dae0",
"XX c #dedfe5",
"oX c #d4e0e3",
"OX c #d6e5ed",
"+X c #d8e5ec",
"@X c #dce9ee",
"#X c #e1e6ea",
"$X c #e1e8ea",
"%X c #ebedef",
"&X c #eceef1",
"*X c #e6f2f6",
"=X c #edf0f2",
"-X c #eef1f3",
";X c #eff2f3",
":X c #ecf3f6",
">X c #eff7f5",
",X c #f1f3f4",
"<X c #f2f5f6",
"1X c #f5f6f7",
"2X c #f3f6f8",
"3X c #f3f9fb",
"4X c #f5f8f9",
"5X c #f5f9fa",
"6X c #f6f9f9",
"7X c #f7f9fb",
"8X c #f7fafb",
"9X c #f9fafb",
"0X c #fafbfc",
"qX c #fbfcfc",
"wX c #fbfdfe",
/* pixels */
"K.E.T.R.R.T.R.R.R.Y.W./.^.(.I.| ",
"3.G.J.H.].>X0X6X<X8X8XOXD.L. .a ",
"*.h.f.Z.wX:XV.l.N.B._.9X#.Y h s ",
":.g.$.5XOXm b.-X-X=X=X;XV G k s ",
">.8.P.0XJ z.qXF.[ ..!.[.q C i s ",
"<.6.*X`.Z #X{.> 1 : , < q N u s ",
";.9.4Xv.w ,Xj.2 6 5 9 8 S F j s ",
"-.0.7X' _ %X( 3 A T @.P ~ I z s ",
"=.5.7X` ) =X] n R w.a./ r.U x s ",
"<.4.4Xc.0 <XM.M Q q.p.} t.^ c s ",
">.1.@X XB |.&XH ! e.d.C.s.y.b s ",
",.O.m.0X%.L -X=XU.).3XwXu.i.v s ",
">.+.X.oX,X{ K Q.+XOX'.2XE W l d ",
"2.7.o.r $X9X~.x.k.n.}.1X7 D p g ",
"&.e ; # - S.XX&X,X%X.XA.O = y g ",
"4 @ * & $ + X . . .   . o % t f "
};
