/* XPM */
static char *magick[] = {
/* columns rows colors chars-per-pixel */
"19 16 4 1",
"  c Gray0",
". c Blue",
"X c Red",
"o c White",
/* pixels */
"ooooooooooooooooooo",
"ooooooooooooooooooo",
"ooooooooooooooooooo",
"ooooooooooooooooooo",
"ooo            oooo",
"oo o ...ooooXXX ooo",
"o ooo ...ooooXXX oo",
"o ooo ...ooooXXX oo",
"o ooo ...ooooXXX oo",
"o ooo ...ooooXXX oo",
"oo o ...ooooXXX ooo",
"ooo            oooo",
"ooooooooooooooooooo",
"ooooooooooooooooooo",
"ooooooooooooooooooo",
"ooooooooooooooooooo"
};
