/* XPM */
/* sccsid  %W%  Inoveda Ltd   %G% */
static char *magick[] = {
/* columns rows colors chars-per-pixel */
"13 13 2 1",
"  c #808080",
". c White",
/* pixels */
"            .",
"           ..",
"  ...........",
"  ...........",
"  ...........",
"  ...........",
"  ...........",
"  ...........",
"  ...........",
"  ...........",
"  ...........",
" ............",
"............."
};
