/* XPM */
static char *magick[] = {
/* columns rows colors chars-per-pixel */
"20 9 7 1",
"  c Gray0",
". c #646464",
"X c Blue",
"o c #00ff99",
"O c Red",
"+ c #868686",
"@ c White",
/* pixels */
"@@@@@@@@@@@X+@@@@@@@",
"        @@XXX+@@@@@@",
" @@@@@@ @XXXXX+@@@@@",
" @    @ XXXXXXX+@@@@",
" @@.  @ XXXXXXXo+@@@",
" @. . @ OXXXXXooo+@@",
" . .@ @ OOXXXooooo+@",
"  .@@@@ OOOXooooooo+",
"        ++++++++++++"
};
