/* XPM */
static char *magick[] = {
/* columns rows colors chars-per-pixel */
"16 9 5 1",
"  c White",
". c Blue",
"X c #868686",
"o c Red",
"O c #00ff99",
/* pixels */
"       .X       ",
"      ...X      ",
"     .....X     ",
"    .......X    ",
"   o.......OX   ",
"  ooo.....OOOX  ",
" ooooo...OOOOOX ",
"ooooooo.OOOOOOOX",
" XXXXXXXXXXXXXXX"
};
