/* XPM */
/* sccsid  %W%  Inoveda Ltd   %G% */
static char *magick[] = {
/* columns rows colors chars-per-pixel */
"13 13 3 1",
"  c #808080",
". c White",
"X c Gray0",
/* pixels */
"            .",
"           ..",
"  ...........",
"  ...........",
"  .......X...",
"  ......XX...",
"  .X...XX....",
"  .XX.XX.....",
"  ..XXX......",
"  ...X.......",
"  ...........",
" ............",
"............."
};
