/* XPM */
static char *magick[] = {
/* columns rows colors chars-per-pixel */
"15 13 5 1",
"  c Gray0",
". c Gray50",
"X c Yellow",
"o c Gray75",
"O c White",
/* pixels */
"OO.....OOOOOOOO",
"O.OOOOO.OOOOOOO",
".OoXoXoO......O",
".OXoXoXoOOOOO. ",
".OoXoXoXoXoXo. ",
"............X. ",
"OOOOOOOOOO. o. ",
"OoXoXoXoXoX .. ",
".OoXoXoXoXo. . ",
".OXoXoXoXoXo . ",
"O.OXoXoXoXoX.  ",
"O............  ",
"OO             "
};
