/* XPM */
static char *code_view[]={
"16 16 187 2",
"aN c #000000",
"#D c #000002",
"#7 c #000009",
"a0 c #00000b",
"#2 c #000035",
"#Z c #000049",
"#c c #000100",
"aF c #010101",
"#S c #020107",
"#b c #030400",
"a1 c #05030e",
"a2 c #07060b",
"a3 c #070707",
"ad c #08002f",
"ay c #080808",
"#d c #0c0d08",
"#8 c #0d062f",
"#L c #0e0441",
"#v c #0e0731",
"#u c #0e082c",
"aj c #100a30",
"#4 c #110a33",
"ak c #110a36",
"#w c #120b35",
"#0 c #140759",
"aZ c #14131b",
"#a c #14160b",
"#Y c #15085a",
"ag c #15141c",
"#q c #151513",
"al c #17103a",
"#3 c #180f44",
"#G c #1a1438",
"#V c #1f1842",
"aV c #202020",
"#P c #221c40",
"ab c #2a1e6a",
".Y c #65675a",
".w c #757671",
"aQ c #777583",
"#W c #7b73a4",
".4 c #7e7b8e",
".s c #7f807a",
".N c #82837b",
".v c #82837e",
".D c #838287",
"#H c #847da7",
"aB c #84809b",
".q c #858585",
"aJ c #878499",
".t c #878882",
"#9 c #8981b0",
".r c #898a85",
".p c #8a8a8c",
".M c #8f9186",
".o c #909090",
"au c #918cac",
".u c #93948e",
".T c #94929d",
".0 c #969791",
"#h c #a09cb7",
"#e c #a4a4a2",
".x c #a4a5a0",
"as c #aaa7ba",
".Q c #b1b1af",
"#F c #b2aec9",
"#f c #b3b0c1",
".a c #b4b4b2",
"aE c #b4b4b4",
"aH c #b6b4bf",
"#r c #b6b6b6",
".i c #b6b6b8",
"a4 c #b7b7b7",
"ah c #b7b7b9",
"#s c #b8b4cb",
"#6 c #b9b6c9",
".l c #b9b9b9",
"#p c #babab8",
"aO c #bbbbbb",
"af c #bcb9ca",
"aR c #bcb9cc",
".c c #bcbcbc",
".f c #bcbcbe",
".b c #bdbdbb",
".h c #bdbdbf",
".3 c #bebcc7",
"#C c #bebdc3",
".e c #bebec0",
"aW c #bfbfbf",
"aS c #c0becc",
"aT c #c0bfc4",
"ar c #c0bfc5",
"aU c #c0c0c0",
"Qt c #c0c1bc",
"ai c #c1bdd4",
"aM c #c1c1c1",
".g c #c1c1c3",
"aP c #c2c1c7",
"az c #c2c2c2",
"#o c #c4c4c2",
"#R c #c5c3d0",
"#E c #c5c5c5",
"#U c #c6c1e1",
".d c #c6c6c6",
"aX c #c8c8ca",
".S c #c9c8d0",
".k c #c9c9cb",
".m c #cdcdcb",
"ax c #cdcdcd",
"#T c #cdcdcf",
".j c #cfcfd1",
".B c #d0d0d0",
".O c #d1d2cc",
".R c #d2d1d7",
"aG c #d3d3d3",
".# c #d4d4d2",
"aA c #d6d4e2",
".2 c #dddddb",
".n c #e0e0e0",
".1 c #e4e5e0",
"#n c #e8e8e6",
".y c #e9e9e7",
"#O c #eae3ff",
"#x c #ebe5ff",
".A c #ededeb",
"## c #edefe4",
".5 c #eeeaff",
"aI c #f0edfe",
".9 c #f0f2e7",
".V c #f1f0f6",
"ac c #f2e7ff",
"at c #f3efff",
"#m c #f3f2f7",
"aa c #f4e8ff",
".E c #f4f3f9",
".H c #f4f7e6",
"#g c #f5f1ff",
"#5 c #f6f1ff",
"aY c #f6f5fb",
"#B c #f6f5fd",
".Z c #f6f8ed",
"#z c #f7f3ff",
".7 c #f7f7f7",
"#J c #f8efff",
"#A c #f8f5ff",
"#l c #f8f7fd",
"#k c #f8f7ff",
"#. c #f8faef",
"ae c #f9f5ff",
"a# c #faf0ff",
"aC c #faf5ff",
"#Q c #fbf7ff",
".J c #fbfdef",
"#i c #fcf7ff",
".L c #fcfef1",
"#j c #fdf9ff",
"aK c #fdfcff",
"aL c #fdfdfd",
".X c #fdffef",
"a. c #fef5ff",
"#N c #fef6ff",
"av c #fef8ff",
"am c #fef9ff",
"an c #fefaff",
"ao c #fefbff",
"ap c #fefcff",
"aq c #fefdff",
"aw c #fefefe",
".8 c #fefff7",
"#1 c #fff3ff",
"#X c #fff4ff",
"#K c #fff5ff",
"#M c #fff6ff",
"#I c #fff7ff",
"#y c #fff9ff",
"#t c #fffaff",
"aD c #fffbff",
".6 c #fffcff",
".U c #fffdff",
".C c #fffeff",
".I c #fffff3",
".K c #fffff4",
".G c #fffff6",
".W c #fffff8",
".P c #fffffb",
".z c #fffffd",
".F c #ffffff",
"Qt.#.a.b.c.d.e.f.g.h.i.e.j.k.g.l",
".m.n.o.p.q.r.s.t.u.v.w.x.y.z.A.B",
".i.C.D.E.F.G.H.I.J.K.L.M.N.O.P.Q",
".R.S.T.U.V.W.X.X.I.J.I.Y.Z.0.1.2",
".3.U.4.5.6.7.8.W.9#.###a#b#c#d#e",
"#f#g#h#i#j.U#k#l#m.F.F#n#o#p#q#r",
"#s#t#u#v#w#x#y#t#z#j#A.U#B#C#D#E",
"#F#G#H#I#J#K#L#M#N#O#P#Q.6#R#S#T",
"#U#V#W#M#X#Y#Z#0#1#2#3#4#5#6#7.f",
"#U#8#9a.a#aaabaca##Mad#yaeafagah",
"ai#tajakalamananaoaoapapaqar#D.c",
"asatauav#tapawawawawawawawaxayaz",
"aA.6aBaCaD.C.F.F.F.F.F.F.FaEaFaG",
"aHaIaJaD.6aKaLaLaLaLaLaLaLaMaNaO",
"aP.UaQaRaSaTaUaUaUaUaUaUaU.laVaW",
"aXaYaZa0a1a2a3a3a3a3a3a3a3aNaNa4"};
