/* XPM */
static char *magick[] = {
/* columns rows colors chars-per-pixel */
"15 6 4 1",
"  c Magenta",
". c #868686",
"X c #9999ff",
"o c White",
/* pixels */
"         X.oooo",
"o       XXX.ooo",
"oo     XXXXX.oo",
"ooo   XXXXXXX.o",
"oooo XXXXXXXXX.",
"ooooo.........."
};
