/* XPM */
static char *magick[] = {
/* columns rows colors chars-per-pixel */
"11 18 7 1",
"  c Gray0",
". c #08b608",
"X c #39d339",
"o c #6be36b",
"O c #8c8e8c",
"+ c #bdbebd",
"@ c #c6c3c6",
/* pixels */
"@++++++++++",
"@++++++++++",
"@+ ++++++++",
"@+  +++++++",
"@+ o ++++++",
"@+ oo +++++",
"@+ ooX ++++",
"@+ oXX. +++",
"@+ XXX.. ++",
"@+ XX... O+",
"@+ X... O++",
"@+ ... O+++",
"@+ .. O++++",
"@+ . O+++++",
"@+  O++++++",
"@+ O+++++++",
"@++O+++++++",
"@++@@@@@@@@"
};
