/* XPM */
static char *copy_window[] = {
/* columns rows colors chars-per-pixel */
"14 14 5 1",
"  c black",
". c #808080",
"X c #C0C0C0",
"o c #ECE9D8",
"O c None",
/* pixels */
"           OOO",
" XXXXXXXXX OOO",
" XXXXXXXXX OOO",
"             O",
" oo XXXXXXXX .",
" oo XXXXXXXX .",
" oo          .",
" oo oooooooo .",
" oo oooooooo .",
"    oooooooo .",
"OOO oooooooo .",
"OOO oooooooo .",
"OOO          .",
"OOOO.........."
};
