/* XPM */
static char *magick[] = {
/* columns rows colors chars-per-pixel */
"18 15 9 1",
"  c Gray0",
". c #000400",
"X c #080408",
"o c Gray3",
"O c #080c08",
"+ c #100c10",
"@ c #101010",
"# c #181418",
"$ c None",
/* pixels */
"$$$$$$$$$$$$$$$$$$",
"$$$$$  $$$ . $$$$$",
"$$$$X$$ $ $$$ $$$$",
"$$$$ $$$$O$$$$$$$$",
"$$$$$  $$ $$$$$$$$",
"$$$$$$$ $ $$$$$$$$",
"$$$$ $$ $.$$$o$$$$",
"$$$$$  $$$  o$$$$$",
"$$$$$$$$$$$$$$$$$$",
"$    $$   $$ $+ $$",
"$ $X$ $$$$ $#$.$O$",
"$ $ $ $   o$ $ $ $",
"$@$ $X$ $$ $.$ $ $",
"$ $ $ $ . X$ $+$o$",
"$$$$$$$$$$$$$$$$$$"
};
