/* XPM */
static char *magick[] = {
/* columns rows colors chars-per-pixel */
"10 10 4 1",
"  c White",
". c #00ff99",
"X c #868686",
"o c Blue",
/* pixels */
"    .X    ",
"   ...X   ",
"  .....X  ",
" .......X ",
".........X",
"oooooooooX",
" oooooooX ",
"  oooooX  ",
"   oooX   ",
"    oX    "
};
