/* XPM */
static char *magick[] = {
/* columns rows colors chars-per-pixel */
"18 16 10 1",
"  c Gray0",
". c #a50000",
"X c #bd2400",
"o c #de1818",
"O c Red",
"+ c Yellow",
"@ c #8c8e8c",
"# c #bdbebd",
"$ c #ff9a94",
"% c #ffae8c",
/* pixels */
"##################",
"##################",
"#####       ######",
"#### $$$$$$$ #####",
"### $$OOOOOOO ####",
"## $$OOOOOOOOO ###",
"## $OOOOOOOOO++ @#",
"## $OO++ OOO++ @@#",
"## %OO ++ O++  @##",
"## %oOo ++++ . @##",
"## %oooo +++ . @##",
"### XXXX ++++ @###",
"#### ...++  ++@###",
"#####   +    + ###",
"######@++ @@@  @##",
"##################"
};
