/* XPM */
static char *delete_all[] = {
/* columns rows colors chars-per-pixel */
"23 14 36 1",
"  c black",
". c #040404",
"X c gray26",
"o c gray40",
"O c #777777",
"+ c #800000",
"@ c #990000",
"# c #993333",
"$ c #996666",
"% c #CC0000",
"& c #CC3300",
"* c #CC3333",
"= c red",
"- c #FF3300",
"; c #FF3333",
": c #CC3366",
"> c #FF6633",
", c #CC6666",
"< c #FF5050",
"1 c #FF6666",
"2 c #CC6699",
"3 c #FF7C80",
"4 c #CC9966",
"5 c #868686",
"6 c gray59",
"7 c #ADA990",
"8 c #A0A0A4",
"9 c #B2B2B2",
"0 c #CC9999",
"q c #CCCC99",
"w c #C0C0C0",
"e c #CBCBCB",
"r c gray80",
"t c #D7D7D7",
"y c #EFD6C6",
"u c None",
/* pixels */
"30yuuuuuuuuy3&<tuuuuuuu",
"*;;3euuuuy0***wruuuuuuu",
"r0*-;0tuy>**2wruuuuuuuu",
"uu9:=-4q>=%0wruuuuuuuuu",
"uuuw:=--=*,wo..tuu..u..",
"uuuu9;==*,99...wuu..u..",
"uuut1====2w6.5.5uu..u..",
"uut1==**=;0XXu.Xuu..u..",
"ut>==%$8*=%.8uO.eu..u..",
"t>==%$8u9*@.....7u..u..",
">==%$8wuu9.+:ew.Ou..u..",
";=%$8wuuuu.#=2w..t..u..",
";%$88uuuuuu9*,wuuuuuuuu",
"8w88uuuuuuuu888uuuuuuuu"
};
