/* XPM */
static char *delete[] = {
/* columns rows colors chars-per-pixel */
"15 14 27 1",
"  c black",
". c #996666",
"X c #CC0000",
"o c #CC3300",
"O c #CC3333",
"+ c red",
"@ c #FF3300",
"# c #FF3333",
"$ c #CC3366",
"% c #FF6633",
"& c #CC6666",
"* c #FF5050",
"= c #FF6666",
"- c #CC6699",
"; c #FF7C80",
": c #CC9966",
"> c #A0A0A4",
", c #B2B2B2",
"< c #CC9999",
"1 c #CCCC99",
"2 c #C0C0C0",
"3 c #CBCBCB",
"4 c gray80",
"5 c #D7D7D7",
"6 c #DDDDDD",
"7 c #EFD6C6",
"8 c None",
/* pixels */
";<7888888887;o*",
"O##;388887<OOO2",
"4<O@#<587%OO-24",
"88,$+@:1%+X<248",
"8882$+@@+O&2488",
"8888,#++O&,4888",
"8885=++++-28888",
"885=++OO+#<6888",
"85%++X.>O+#<688",
"5%++X.>2,O+#<68",
"%++X.>288,O+$38",
"#+X.>28888,O+-4",
"#X.>>888888,O&2",
">2>>88888888>>>"
};
