/* XPM */
static char *design_view[]={
"16 16 93 2",
".E c None",
".m c #000000",
"#t c #000002",
"#d c #000004",
"#r c #000005",
".6 c #010101",
"#u c #030208",
".7 c #030303",
"#b c #040404",
"#j c #050505",
".l c #060606",
".S c #070707",
".2 c #080808",
"#k c #0a0a0a",
".n c #0d0d0d",
"#c c #111113",
"#p c #181818",
".K c #191919",
".4 c #1a1a1a",
".D c #1e1e1e",
"#n c #2e2d32",
"#g c #999999",
".L c #9c9c9c",
".a c #9d9d9d",
"#o c #a3a2a7",
".o c #a4a4a4",
".Y c #a8a8a8",
".z c #a9a9a9",
".c c #adadad",
".X c #aeaeae",
".M c #afafaf",
".8 c #b0b0b2",
"#i c #b1b1b1",
".B c #b3b3b3",
".q c #b4b4b4",
".Q c #b5b5b5",
".s c #b6b6b6",
".f c #b7b7b7",
".9 c #b7b7b9",
"## c #b8b8b8",
".C c #b9b9b9",
".H c #b9b9bb",
".N c #bababa",
".k c #bbbabf",
".5 c #bbbbbb",
".j c #bbbbbd",
"#v c #bcbbc0",
"#z c #bcbbc1",
".h c #bcbcbc",
"#f c #bdbcc1",
".w c #bdbdbd",
"Qt c #bebebe",
".u c #bfbec3",
".0 c #bfbfbd",
".r c #bfbfbf",
".v c #bfbfc1",
".y c #c0c0c0",
".O c #c2c2c2",
"#s c #c3c2c7",
".J c #c3c3c3",
".e c #c4c4c4",
"#A c #c5c4c9",
".U c #c5c5c5",
".P c #c5c5c7",
"#y c #c6c5cb",
".T c #c6c6c6",
".t c #c7c7c9",
".1 c #c8c8c8",
".W c #c9c9c9",
".V c #cacaca",
".b c #cbcbcb",
"#e c #cccbd0",
".i c #cccccc",
".G c #cdcdcd",
".g c #cecece",
"#x c #ceced0",
"#a c #cfcfcf",
".d c #d0d0d0",
"#w c #d1d1d1",
".Z c #d2d2d2",
".R c #d3d3d3",
".I c #d5d5d5",
".A c #d6d6d6",
"#h c #d9d9d9",
".# c #dadada",
".p c #dbdbdb",
"#. c #dcdcdc",
"#l c #e2e2e4",
"#m c #ebeaef",
".3 c #ededed",
".F c #fefefe",
"#q c #fffeff",
".x c #ffffff",
"Qt.#.a.b.c.d.e.f.d.g.h.i.j.k.j.j",
".b.f.l.m.n.o.p.q.f.r.s.t.u.u.v.r",
".h.w.m.x.x.m.y.z.A.y.B.t.u.u.v.r",
".C.r.D.E.F.l.r.E.z.s.G.H.u.u.v.r",
".I.J.m.m.m.K.L.M.h.N.O.P.u.u.v.r",
".Q.J.c.R.S.f.g.R.q.I.h.f.v.v.v.r",
".T.U.T.s.m.q.S.m.m.V.W.C.v.v.v.r",
".h.X.O.N.l.y.m.x.x.m.Y.Z.v.v.r.0",
".1Qt.1.T.m.m.2.3.x.4.wQt.v.v.r.0",
".e.O.5.N.2.r.m.m.6.mQt.5.v.v.r.0",
".r.r.r.r.l.W.N.i.7.s.V.8.u.u.9#.",
".r.r.r.r.7.o###a.m.Q#b#c#d#e#f#g",
".r.r.r.r.m#h.J#i#j.W#k#l#m#n#o.V",
".r.r.r.r#j##.s.g.m#p.m.x#q#r#s.e",
".r.r.r.r.m.O.J#a.w.s.7#t#r#u#v.e",
".r.r.r.r#w.f.JQt.C.1.w#x#y#z#A.G"};
