/* XPM */
static char *magick[] = {
/* columns rows colors chars-per-pixel */
"15 16 3 1",
"  c Gray0",
". c #ffbcb9",
"X c White",
/* pixels */
"XXXXXXXXXXXXXXX",
"XXXXXXXXXXXXXXX",
"XXXX       XXXX",
"XXX ....... XXX",
"XX ......... XX",
"X ........... X",
"X ..X.X.X.X   X",
"X ..X  .X.  . X",
"X ..X.  X  .. X",
"X ..X.X   X.. X",
"X ......   .. X",
"XX ....  .   XX",
"XXX ..  ...  XX",
"XXXX       XXXX",
"XXXXXXXXXXXXXXX",
"XXXXXXXXXXXXXXX"
};
