/* XPM */
static char *magick[] = {
/* columns rows colors chars-per-pixel */
"16 16 157 2",
"   c #385679",
".  c #4a5056",
"X  c #4d5258",
"o  c #53585e",
"O  c #4a5766",
"+  c #4e5a67",
"@  c #505d6d",
"#  c #595e64",
"$  c #5b6672",
"%  c #5d6875",
"&  c #636e79",
"*  c #18559b",
"=  c #19569c",
"-  c #1055a1",
";  c #1055a2",
":  c #115aad",
">  c #165faf",
",  c #155eb1",
"<  c #1d66b3",
"1  c #275180",
"2  c #25609f",
"3  c #39618b",
"4  c #2c6fbc",
"5  c #336da9",
"6  c #3b73b4",
"7  c #3978bf",
"8  c #3679c1",
"9  c #3b7ac0",
"0  c #4f749b",
"q  c #5f7994",
"w  c #727b86",
"e  c #417dc3",
"r  c #4f85bd",
"t  c #4e86bf",
"y  c #7f8792",
"u  c #6f8dab",
"i  c #7e92aa",
"p  c #4580c2",
"a  c #4983c5",
"s  c #4983c6",
"d  c #4a83c4",
"f  c #4b85c7",
"g  c #4f86c5",
"h  c #558bc7",
"j  c #538bca",
"k  c #588dc8",
"l  c #598dc9",
"z  c #588fc8",
"x  c #5f94cb",
"c  c #6595c6",
"v  c #6096cc",
"b  c #6295cf",
"n  c #6394ce",
"m  c #6395ce",
"M  c #6596ca",
"N  c #6c98cc",
"B  c #6396d0",
"V  c #6498d1",
"C  c #709fcf",
"Z  c #709ed0",
"A  c #719ed1",
"S  c #7ca0c3",
"D  c #73a2d2",
"F  c #77a3d3",
"G  c #79a4d5",
"H  c #7ca8d8",
"J  c #818a94",
"K  c #818d9b",
"L  c #8d959e",
"P  c #959ca6",
"I  c #a7adb3",
"U  c #a9aeb3",
"Y  c #abb0b7",
"T  c #b2b7ba",
"R  c #b8bdbf",
"E  c #80a6d3",
"W  c #81a7d3",
"Q  c #80a8d6",
"!  c #87abd3",
"~  c #87aed5",
"^  c #80a9d8",
"/  c #84abd8",
"(  c #85aeda",
")  c #86aed9",
"_  c #87afda",
"`  c #8aacd1",
"'  c #89add8",
"]  c #8aafda",
"[  c #87b1d9",
"{  c #89b2dc",
"}  c #8cb1d9",
"|  c #8db0d9",
" . c #8cb3d9",
".. c #8fb4dc",
"X. c #96acc4",
"o. c #94b5d7",
"O. c #92b6dc",
"+. c #95b4d9",
"@. c #96b6d8",
"#. c #97b7da",
"$. c #9ab9d5",
"%. c #98bbdf",
"&. c #9dbcdb",
"*. c #9ebcd8",
"=. c #9fbddf",
"-. c #a6bace",
";. c #a3bcdb",
":. c #a0bddc",
">. c #a1bfdc",
",. c #abbed3",
"<. c #b9bdc3",
"1. c #bec0c3",
"2. c #bec1c2",
"3. c #bdc0c5",
"4. c #b8c5d1",
"5. c #a4c3e2",
"6. c #abc6e3",
"7. c #a8c6e5",
"8. c #acc5e2",
"9. c #acc7e4",
"0. c #afcae6",
"q. c #b7cfe7",
"w. c #bbcfe7",
"e. c #bdd1e7",
"r. c #bdd1e9",
"t. c #bcd3e8",
"y. c #bcd3ea",
"u. c #bed2e8",
"i. c #c1c2c6",
"p. c #c0c5c8",
"a. c #c3c8ca",
"s. c #c6cbcd",
"d. c #c9cacf",
"f. c #c6cad0",
"g. c #cacdd2",
"h. c #d2d3d3",
"j. c #d6d7d8",
"k. c #d5d8d9",
"l. c #d8d9da",
"z. c #dddedf",
"x. c #c4d7ea",
"c. c #c5d8ea",
"v. c #c5d8ed",
"b. c #c8dbed",
"n. c #dedfe0",
"m. c #dfe0e1",
"M. c #dfe1e4",
"N. c Gray91",
"B. c #e8e8e9",
"V. c #e8e9e9",
"C. c #eeeeee",
"Z. c #ecf2f9",
"A. c #eef5f9",
"S. c #f4f4f4",
"D. c WhiteSmoke",
"F. c White",
"G. c None",
/* pixels */
"G.G.G.G.G.G.G.G.G.G.G.G.G.G.G.G.",
"G.G.G.G.D.M.g.i.R U 3.B.G.G.G.G.",
"G.G.G.V.f.,.*...~ S u y p.G.G.G.",
"G.G.N.4.>.0.r.c.t.5.H r q <.G.G.",
"G.S.a.&.q.u.6.A.Z.' O.F 6 & z.G.",
"G.m.-.9.e.=.:.F.F.Z l Q j 3 P G.",
"G.d.$.w.8.:.;.+.W N h x A 2 % G.",
"G.1. .x.#.@.o.F.F.M g e ) > X G.",
"G.2.[ y.} ! E F.F.k p 9 ^ : . G.",
"G.s.` 7.| D C F.F.d 7 a b * @ G.",
"G.n.X.{ %.v z F.F.7 4 n 8 1 K G.",
"G.C.Y c ( _ B b.v.s m f ; O k.G.",
"G.G.j.i t V G ] / m 8 -   I G.G.",
"G.G.G.h.J 0 5 < , = 1 + I G.G.G.",
"G.G.G.G.N.T w # o $ L l.G.G.G.G.",
"G.G.G.G.G.G.G.G.G.G.G.G.G.G.G.G."
};
