/* XPM */
static char *magick[] = {
/* columns rows colors chars-per-pixel */
"14 14 3 1",
"  c Gray0",
". c White",
"X c None",
/* pixels */
"XXXXXXXXXXXXXX",
"XXXXXXXXXXXXXX",
"XXXXXXXXXXXXXX",
"XXXXXXXXXXXXXX",
"XXXXXXXXXXXXXX",
"XXXXXXXXXXXXXX",
"XX  XX  XX  XX",
"XX  XX  XX  XX",
"XXXXXXXXXXXXXX",
"XXXXXXXXXXXXXX",
"XXXXXXXXXXXXXX",
"XXXXXXXXXXXXXX",
"XXXXXXXXXXXXXX",
"XXXXXXXXXXXXXX"
};
