/* XPM */
static char *magick[] = {
/* columns rows colors chars-per-pixel */
"16 16 9 1",
"  c Gray0",
". c Gray30",
"X c #686868",
"o c #9a9a9a",
"O c #a7a7a7",
"+ c Gray78",
"@ c Gray85",
"# c #e1e1e1",
"$ c White",
/* pixels */
"$$$$$$$$$$$$$$$$",
"$$$$$$$$$$$$$$$$",
"$$$$$$$$$$$$$$$$",
"$$$$$@X X@$$$$$$",
"$$$$#  $  #$$$$$",
"$$$$o $$$ o$$$$$",
"$$$$.     .$$$$$",
"$$$$       $$$$$",
"$$$$  $$$$$$$$$$",
"$$$$o O$@ X$$$$$",
"$$$$#     @$$$$$",
"$$$$$@X .+$$$$$$",
"$$$$$$$$$$$$$$$$",
"$$$$$$$$$$$$$$$$",
"$$$$$$$$$$$$$$$$",
"$$$$$$$$$$$$$$$$"
};
