/* XPM */
static char *editor[] = {
/* width height ncolors chars_per_pixel */
"19 19 17 1",
/* colors */
"  c #000000000000",
"! c #800000000000",
"# c #000080000000",
"$ c #800080000000",
"% c #000000008000",
"& c #800000008000",
"' c #000080008000",
"( c #800080008000",
") c #400040004000",
"* c #ff0000000000",
"+ c #0000ff000000",
", c #ff00ff000000",
"- c #00000000ff00",
". c #ff000000ff00",
"/ c #0000ff00ff00",
"0 c #ff00ff00ff00",
"X c #C0C0C0",
/* pixels */
"XXXXXXXXXXXXXXXXXXX",
"XXXXXXXXXXXXXXXXXXX",
"X               XXX",
"X 0000000000000 (XX",
"X 00000-------- (XX",
"X 0000000000000 (XX",
"X 00------,,,-0 (XX",
"X 0000000,,, 00 (XX",
"X 00----,,, --0 (XX",
"X 00000,,, 0000 (XX",
"X 00--,,, ---00 (XX",
"X 000,,, 000000 (XX",
"X 00$,, -----00 (XX",
"X 0$$$ 00000000 (XX",
"X 0 $(((((((((( (XX",
"X 0000000000000 (XX",
"X               (XX",
"XX(((((((((((((((XX",
"XXXXXXXXXXXXXXXXXXX"
} ;
