/* XPM */
static char *filter[]={
"15 17 233 2",
".E c #000100",
"aD c #000200",
"#s c #000400",
"#H c #000500",
".Q c #000704",
"#K c #000b00",
"#V c #000d00",
"#J c #000d01",
".7 c #000e00",
".8 c #001000",
"#. c #001200",
".V c #001206",
"#r c #001407",
"## c #001700",
".9 c #001702",
"#U c #001907",
".t c #010000",
"#Z c #020c03",
"ao c #030000",
".a c #030002",
"#1 c #030f03",
".w c #040000",
"aE c #040300",
"ab c #040500",
"bj c #070000",
"bJ c #070302",
".M c #070707",
"an c #070a03",
"#4 c #071305",
"bv c #080000",
"aF c #080300",
".m c #08060b",
"#a c #082a19",
"bx c #090000",
".j c #090005",
".o c #09070a",
"#g c #090b06",
"a6 c #0a0f08",
".0 c #0a100c",
"#6 c #0a1409",
"bh c #0c0402",
"ae c #0d0000",
"#2 c #0d190b",
"as c #0e0500",
"ac c #0f0a06",
".I c #0f0e09",
".q c #0f0e0c",
".D c #0f1515",
"bw c #100404",
".v c #100c09",
"af c #110300",
"aq c #110602",
"#3 c #111d0f",
".L c #121210",
".6 c #132319",
"ap c #140d07",
"#h c #142118",
"#b c #142e21",
"ar c #160b07",
"ad c #160d08",
"#7 c #181f17",
".A c #191219",
".r c #191814",
".C c #191f1f",
".e c #1a1613",
"#5 c #1a2517",
"#0 c #1d291d",
".y c #211b1d",
".H c #292a24",
"at c #2c2723",
"#C c #96f2c9",
"#z c #99f8d0",
"#B c #9dffd4",
"#A c #a0ffd9",
"#x c #a6e6cb",
"az c #a8b9b1",
"#E c #a8e7ca",
"#R c #aaf1cf",
"#n c #aaf5d4",
"a5 c #acaea9",
"#9 c #acb1ab",
".X c #acbcb1",
"#P c #acf9d5",
"#p c #ade7ce",
"#O c #adf7d4",
".T c #aebeb3",
"#l c #aff6d6",
"#y c #afffdc",
"am c #b0bab1",
"a7 c #b2b5ae",
"#m c #b2ffdd",
"be c #b3aeb2",
"av c #b3b8b2",
".B c #b3bcbb",
".R c #b3beb8",
"aj c #b3c8bf",
"#w c #b3e3cd",
"#S c #b3f2d5",
"ah c #b4b5af",
"#Q c #b4ffdd",
".W c #b5c7bb",
"br c #b6b6b8",
"aa c #b6bbb5",
"a. c #b6c1b9",
"#c c #b6c3ba",
"ax c #b6c5be",
"ay c #b6c9c3",
"#N c #b6f7d9",
"bn c #b7aeb1",
"a2 c #b7b5b6",
"aU c #b7b9b4",
"a# c #b7c1b9",
".Z c #b7c2ba",
"ak c #b7cbc0",
"b. c #b8b4b3",
".4 c #b8b7b5",
".1 c #b8bcbb",
"al c #b8c8be",
".U c #b8cabe",
"#k c #b8f4d8",
"#o c #b9fedf",
"a4 c #babcb7",
"bg c #bbb5b5",
".g c #bbb6b3",
".K c #bbbcb7",
"aI c #bbc2bb",
"#Y c #bbc5bd",
"aR c #bcc3bb",
"aJ c #bcc9c2",
".x c #bdb7b7",
"a0 c #bdb7bb",
"bD c #bdb8bc",
"aN c #bdbfbc",
"aw c #bdc8c0",
"#I c #bdcdc3",
"bA c #beb3b7",
".u c #bebab7",
"bc c #bebcc1",
".F c #bec0bd",
".P c #bec4c2",
".O c #bec4c4",
"#X c #bec8c0",
"aB c #bec9c1",
".Y c #becbc2",
"#W c #becec4",
"bo c #bfb6bb",
".n c #bfbdc0",
"#t c #bfbebc",
"bq c #bfbec3",
"aV c #bfc0bb",
".N c #bfc0c2",
"aL c #bfc1c0",
"aG c #c0bfba",
"aH c #c0c2bd",
"#d c #c0c2bf",
"aP c #c0c5be",
"aC c #c0c5bf",
"#D c #c0ffeb",
"ba c #c1b8bb",
".k c #c1b8bd",
".# c #c1bac1",
"aY c #c1bdbe",
"aX c #c1bfc0",
"au c #c1c0bb",
"aM c #c1c3c2",
"aT c #c1c6bf",
"aO c #c1c6c0",
"bb c #c2b7bd",
".i c #c2b9ba",
".b c #c2bebf",
".J c #c2c1bc",
".s c #c2c1bd",
".c c #c3bfbe",
"bK c #c3bfc0",
"bI c #c3c1c2",
"bG c #c3c3c3",
"bE c #c3c3c5",
"aA c #c3d0c9",
"bu c #c4bbbc",
".3 c #c4bec0",
"aZ c #c4bec2",
".f c #c4bfbc",
"bL c #c4c0c1",
"bH c #c4c2c3",
"a8 c #c4c7c0",
"aQ c #c4c9c2",
"#e c #c5bfbf",
"bM c #c5c1c2",
"bF c #c5c5c5",
"ai c #c5cac4",
"#i c #c5e1d2",
"Qt c #c6bfc6",
"aK c #c6c6c8",
".2 c #c6c8c7",
"a3 c #c7c7c5",
"aS c #c7ccc5",
".S c #c7d4cb",
"#F c #c7f2de",
"#M c #c7fde3",
"bz c #c8bebf",
"bC c #c8c2c6",
"a1 c #c8c3c7",
"bs c #c8c6c9",
"a9 c #c8c7c3",
".5 c #c8ceca",
"#L c #c8f2de",
"bl c #c9bfc0",
"bt c #c9c3c5",
"#f c #c9c5c4",
"ag c #c9c6c1",
"#8 c #c9d0c8",
"#T c #c9fbe2",
".l c #cbc0c8",
"b# c #cbc5c7",
".z c #cbc5c9",
".d c #cbc7c4",
".p c #cbc9ca",
"by c #ccc0c2",
"#u c #ccddd3",
"#q c #cdf8e4",
"bk c #cfc5c4",
"bf c #cfcbcc",
"#j c #cffce7",
"bp c #d0c9d0",
".G c #d0d2cd",
"bm c #d1c7c8",
".h c #d2c9ca",
"bB c #d2c9cc",
"aW c #d3d3d1",
"#G c #d3efe0",
"bd c #d7d5d8",
"bi c #d8d0ce",
"#v c #e0fff1",
"Qt.#.a.b.b.c.d.e.f.g.h.i.j.k.l",
".m.n.o.p.q.r.s.t.u.v.w.x.y.z.A",
".B.C.D.E.F.G.E.H.I.J.K.L.M.E.N",
".O.P.Q.R.S.T.U.V.W.X.Y.Z.0.1.2",
".3.4.5.6.7.8.9#.#####a#b#c#d#e",
"#f#g#h#i#j#k#l#m#n#o#p#q#r#s#t",
"#s#u#v#w#x#y#z#A#B#C#D#E#F#G#H",
"#I#J#K#L#M#N#O#P#Q#R#S#T#U#V#W",
"#X#Y#Z#H#0#1#2#3#4#5#6#s#7#8#9",
"a.a#aaabacadaeaeaeaeafadagahai",
"ajakalamanaoapaqarasatauavawax",
"ayazaAaBaCaDaEaoaFaoaGaHaI.RaJ",
"aKaLaMaNaOaPaQaRaSaTaUaVaWaXaY",
"aZa0a1a2a3a4a5a6a7a8a9b.b#babb",
"bcbdbebfbgbhbibjbkbjblbmbnbobp",
"bqbrbs.bbtbubvbwbxbybzbAbBbCbD",
"bEbFbGbHbIbH.bbJbKbLbLbMbHbHbH"};
