/* XPM */
static char *magick[] = {
/* columns rows colors chars-per-pixel */
"16 16 20 1",
"  c Gray0",
". c #a55a00",
"X c Red",
"o c #ff9947",
"O c #ffcb66",
"+ c #efe740",
"@ c #8d8d8d",
"# c Gray75",
"$ c #89b3f8",
"% c #bcbcff",
"& c #9ec7f5",
"* c #a7cbf2",
"= c #feaf8f",
"- c #fad98e",
"; c #ffd7af",
": c #c7c7ff",
"> c #d8d8ff",
", c #dee1f8",
"< c #faedcc",
"1 c White",
/* pixels */
"########        ",
"######## 111,,: ",
"######     ,,:% ",
"##### +++++ :%* ",
"#### ++   ++ ** ",
"### ++ < > ++ & ",
"### + << %% + $ ",
"### + << %      ",
"### + <<   XXX  ",
"### ++ <<< XXX @",
"###  ++    XXX @",
"## .. ++++ XXX @",
"# oo.     XXXXX ",
" -Oo @@@@@ XXX @",
" ;= @###### X @#",
"   @######## @##"
};
