/* XPM */
static char *magick[] = {
/* columns rows colors chars-per-pixel */
"16 16 50 1",
"  c Gray0",
". c #010101",
"X c #020200",
"o c #020202",
"O c Gray1",
"+ c #040404",
"@ c #040405",
"# c #040406",
"$ c #060606",
"% c #070707",
"& c #0b0b00",
"* c #08080c",
"= c #0c0c0b",
"- c Gray5",
"; c #0d0d0e",
": c #0e0e0d",
"> c #0f0f0e",
", c #0d0d12",
"< c #10100f",
"1 c #111110",
"2 c #131313",
"3 c #171711",
"4 c #151516",
"5 c #171716",
"6 c #1e1e1d",
"7 c #21201f",
"8 c #262624",
"9 c #282725",
"0 c #2b2b2c",
"q c #3a3935",
"w c #3b3a36",
"e c #3b3c3d",
"r c #3e3e3e",
"t c Gray26",
"y c Gray33",
"u c #555555",
"i c #585757",
"p c #5d5d5f",
"a c #00ff21",
"s c Red",
"d c #9b998d",
"f c #939395",
"g c #959490",
"h c #a1a2a3",
"j c #acacad",
"k c #b3b1a3",
"l c #b9b9b9",
"z c #bdbebe",
"x c Gray77",
"c c None",
/* pixels */
"ccw3cccw>ccccccc",
"ccw cccw ccccccc",
"ccw cccq ccccccc",
"w&X ,p8o =<ccccc",
"w*#  %;O   ccccc",
"wlu   xt   ccccc",
"wjy   zr   ccccc",
"w%+@:16-.  ccccc",
"w-@icccg42$ccccc",
"wfedcccc9h0csccc",
"w75kaccc   csscc",
"cccaaccccssssssc",
"ccaaaaaacssssssc",
"ccaaaaaaccccsscc",
"cccaacccccccsccc",
"ccccaccccccccccc"
};
