/* XPM */
static char *magick[] = {
/* columns rows colors chars-per-pixel */
"16 15 51 1",
"  c Gray0",
". c #010101",
"X c #020200",
"o c #020202",
"O c Gray1",
"+ c #040404",
"@ c #040405",
"# c #040406",
"$ c #060606",
"% c #070707",
"& c #0b0b00",
"* c #08080c",
"= c #0c0c0b",
"- c Gray5",
"; c #0d0d0e",
": c #0e0e0d",
"> c #0f0f0e",
", c #0d0d12",
"< c #10100f",
"1 c #111110",
"2 c #131313",
"3 c #171711",
"4 c #151516",
"5 c #161614",
"6 c #171716",
"7 c #1e1e1d",
"8 c #21201f",
"9 c #222221",
"0 c #262624",
"q c #282725",
"w c #2b2b2c",
"e c #3a3935",
"r c #3b3a36",
"t c #3b3c3d",
"y c #3f3e39",
"u c #3e3e3e",
"i c Gray26",
"p c Gray33",
"a c #555555",
"s c #585757",
"d c #5d5d5f",
"f c #9b998d",
"g c #939395",
"h c #959490",
"j c #a1a2a3",
"k c #acacad",
"l c #b3b1a3",
"z c #b9b9b9",
"x c #bdbebe",
"c c Gray77",
"v c None",
/* pixels */
"vvvvvvvvvvvvvvvv",
"vvvr3vvvr>vvvvvv",
"vvvr vvvr vvvvvv",
"vvvr vvve vvvvvv",
"vr&X ,d0o =<vvvv",
"vr*#  %;O   vvvv",
"vrza   ci   vvvv",
"vrkp   xu   vvvv",
"vr%+@:17-.  vvvv",
"vr-@svvvh42$vvvv",
"vrgtfvvvvqjwvvvv",
"vr86lvvvvy95vvvv",
"vvvvvvvvvvvvvvvv",
"vvvvv--vv--vv--v",
"vvvvv--vv--vv--v"
};
