/* XPM */
static char *forward[]={
"16 16 83 2",
"#h c #121212",
".0 c #1e1e1e",
"#a c #222222",
"#c c #2b2b2b",
".Z c #2f2f2f",
"#k c #333333",
"#i c #343434",
".3 c #3c3c3c",
".P c #3e3e3e",
".2 c #404040",
".r c #414141",
".E c #444444",
".1 c #484848",
".6 c #515151",
".F c #545454",
"#. c #5b5b5b",
".A c #5d5d5d",
".9 c #5f5f5f",
"## c #626262",
".z c #636363",
".q c #646464",
".Q c #666666",
".W c #676767",
".j c #696969",
".5 c #6b6b6b",
"#b c #747474",
".8 c #7d7d7d",
".i c #7e7e7e",
".4 c #838383",
"#g c #898989",
".K c #8d8d8d",
".J c #929292",
".I c #979797",
".B c #9c9c9c",
"#m c #9d9d9d",
".G c #a0a0a0",
".H c #a1a1a1",
".X c #a9a9a9",
".v c #ababab",
"#n c #aeaeae",
"#p c #afafaf",
".C c #b0b0b0",
"#l c #b1b1b1",
".w c #b2b2b2",
".t c #b3b3b3",
".x c #b4b4b4",
".m c #b5b5b5",
".l c #b6b6b6",
".7 c #b7b7b7",
".b c #b9b9b9",
".e c #bababa",
".# c #bbbbbb",
"#o c #bcbcbc",
".c c #bdbdbd",
".k c #bebebe",
".d c #bfbfbf",
".p c #c0c0c0",
"Qt c #c1c1c1",
"#j c #c2c2c2",
".g c #c3c3c3",
".D c #c4c4c4",
".o c #c5c5c5",
".f c #c6c6c6",
".a c #c7c7c7",
".u c #c8c8c8",
".N c #c9c9c9",
".n c #cacaca",
"#q c #cbcbcb",
".s c #cccccc",
".y c #cdcdcd",
".h c #cecece",
"#d c #cfcfcf",
".T c #d1d1d1",
"#e c #d2d2d2",
".M c #d3d3d3",
".O c #d4d4d4",
"#f c #d5d5d5",
".V c #d8d8d8",
".S c #d9d9d9",
".Y c #dadada",
".U c #dbdbdb",
".R c #e3e3e3",
".L c #ebebeb",
"QtQtQtQtQtQtQtQtQtQtQtQtQtQtQtQt",
".#.#.#.#.#.#.#.#.#.#.#.#.#.#.#.#",
"QtQtQtQtQtQtQtQtQtQtQtQtQtQtQtQt",
".a.b.c.d.e.f.g.h.i.j.h.c.d.f.k.l",
".m.g.n.o.d.p.b.p.q.r.m.s.o.a.p.g",
".t.u.v.w.k.x.f.y.z.A.f.B.#.b.C.w",
".n.D.E.F.G.H.I.J.j.K.L.M.x.N.n.k",
".m.O.P.Q.b.R.h.s.S.T.U.V.W.X.h.f",
".d.Y.Z.0.1.r.2.P.3.4.x.5.6.I.d.7",
".p.T.8.9#..3##.W#a.r#b#c.w.s#d.k",
".k.#.s.o.T.T#e#f#g#h#i.a.a.o.c.d",
".p.p.p.p.w.f#j#d.Q#k.w.u.p.p.p.p",
".k.k.k.k.sQt#l.O.x#m.S#j.k.k.k.k",
".c.c.c.c.k.m#n.D.g#o.f#p.c.c.c.c",
".g.g.g.g.p.a.s#j.p#j.c#j.g.g.g.g",
".#.#.#.#.dQt.p.C.k#q.#.D.#.#.#.#"};
