/* XPM */
static char *magick[] = {
/* columns rows colors chars-per-pixel */
"16 16 6 1",
"  c White",
". c Gray0",
"X c #d1fd6c",
"o c #c6c641",
"O c Gray75",
"+ c #8fa519",
/* pixels */
"                ",
"                ",
"    .....       ",
" ....XXoo.      ",
"  OO.XXoo+.     ",
"    .XXoo+.O    ",
"    .XXoo+....  ",
" ....XXoo+.OOOO ",
"  OO.XXoo+....  ",
"    .XXoo+.OOOO ",
"    .XXoo+.O    ",
" ....XXoo.O     ",
"  OO.....O      ",
"     OOOO       ",
"                ",
"                "
};
