/* XPM */
static char *hchannel[] = {
/* columns rows colors chars-per-pixel */
"16 16 6 1",
"  c black",
". c blue",
"X c #00FF99",
"o c red",
"O c #BDBEBD",
"+ c gray100",
/* pixels */
"                ",
" ++++++++++++++ ",
" ++++++++++++++ ",
" ++++++++++++++ ",
" +            + ",
"+ + ...XXXXooo +",
" +++ ...XXXXooo ",
" +++ ...XXXXooo ",
" +++ ...XXXXooo ",
" +++ ...XXXXooo ",
"+ + ...XXXXooo +",
" +            O ",
" ++OOOOOOOOOOO+ ",
" ++++++++++++++ ",
" ++++++++++++++ ",
"                "
};
