/* XPM */
static char *magick[] = {
/* columns rows colors chars-per-pixel */
"13 15 10 1",
"  c #868686",
". c White",
"X c #d7d7d7",
"o c Blue",
"O c #eaeaea",
"+ c #000080",
"@ c #040404",
"# c #a6caf0",
"$ c #c0c0c0",
"% c #ccecff",
/* pixels */
"          ...",
" ........  X.",
" ...o.... O .",
" ...+....@@@@",
" ...o+o#..$$@",
" ...+.%o...$@",
" ...o..+...$@",
" ...+..o...$@",
" ..........$@",
" ..       .$@",
" ..........$@",
" ..       .$@",
" ..........$@",
" $$$$$$$$$$$@",
"@@@@@@@@@@@@@"
};
