/* XPM */
static char *magick[] = {
/* columns rows colors chars-per-pixel */
"70 5 6 1",
"  c Gray80",
". c Gray60",
"X c #333366",
"o c #330066",
"O c White",
"+ c #003333",
/* pixels */
"                                                                      ",
".      X                                                        X    .",
".     XXo     O  O  O  O  O  O  O  O  O  O  O  O  O  O  O      XXo   .",
".    +XXXX     X  X  o  X  X  X  X  X  X  X  X  X  X  X  X    XXXXX  .",
".                                                                    ."
};
