/* XPM */
static char *magick[] = {
/* columns rows colors chars-per-pixel */
"5 70 6 1",
"  c Gray80",
". c Gray60",
"X c #003333",
"o c #333366",
"O c #330066",
"+ c White",
/* pixels */
" ....",
"     ",
"     ",
"     ",
"     ",
"   X ",
"  oo ",
" ooo ",
"  Oo ",
"   o ",
"     ",
"     ",
"     ",
"     ",
"  +  ",
"   o ",
"     ",
"  +  ",
"   o ",
"     ",
"  +  ",
"   O ",
"     ",
"  +  ",
"   o ",
"     ",
"  +  ",
"   o ",
"     ",
"  +  ",
"   o ",
"     ",
"  +  ",
"   o ",
"     ",
"  +  ",
"   o ",
"     ",
"  +  ",
"   o ",
"     ",
"  +  ",
"   o ",
"     ",
"  +  ",
"   o ",
"     ",
"  +  ",
"   o ",
"     ",
"  +  ",
"   o ",
"     ",
"  +  ",
"   o ",
"     ",
"  +  ",
"   o ",
"     ",
"     ",
"     ",
"     ",
"   o ",
"  oo ",
" ooo ",
"  Oo ",
"   o ",
"     ",
"     ",
" ...."
};
