/* XPM */
static char *magick[] = {
/* columns rows colors chars-per-pixel */
"3 70 6 1",
"  c Gray60",
". c Gray80",
"X c #003333",
"o c #333366",
"O c #330066",
"+ c White",
/* pixels */
"   ",
"...",
"...",
"...",
"...",
"..X",
".oo",
"ooo",
".Oo",
"..o",
"...",
"...",
"...",
"...",
".+.",
"..o",
"...",
".+.",
"..o",
"...",
".+.",
"..O",
"...",
".+.",
"..o",
"...",
".+.",
"..o",
"...",
".+.",
"..o",
"...",
".+.",
"..o",
"...",
".+.",
"..o",
"...",
".+.",
"..o",
"...",
".+.",
"..o",
"...",
".+.",
"..o",
"...",
".+.",
"..o",
"...",
".+.",
"..o",
"...",
".+.",
"..o",
"...",
".+.",
"..o",
"...",
"...",
"...",
"...",
"..o",
".oo",
"ooo",
".Oo",
"..o",
"...",
"...",
"   "
};
