/* XPM */
static char *magick[] = {
/* columns rows colors chars-per-pixel */
"18 10 6 1",
"  c White",
". c #040404",
"X c Blue",
"o c #868686",
"O c #00ff99",
"+ c Red",
/* pixels */
"  ..............  ",
"  ..............  ",
"    XXXXXXXXXo    ",
"   XXXXXXXXXXXo   ",
"  XXXXXXXXXXXXXo  ",
" OOOOOOOOOOOOOOOo ",
"OOOOOOOOOOOOOOOOOo",
"+++++++++++++++++o",
"+++++++++++++++++o",
" ooooooooooooooooo"
};
