/* XPM */
static char *in[]={
"5 9 5 1",
"c c #f86d6c",
"b c #f88887",
"a c #f97878",
". c #fc0406",
"# c #ffffff",
".####",
".a###",
"..b##",
"...a#",
"....b",
"...c#",
"..b##",
".a###",
".####"};
