/* XPM */
static char *in_out[]={
"5 13 15 1",
"h c #04c204",
"g c #29c929",
"e c #4ad048",
"j c #5ad458",
"k c #88dd88",
"f c #96e396",
"m c #a8eaa8",
"l c #baeeba",
"d c #def7de",
"c c #f86d6c",
"b c #f88887",
"# c #f97878",
". c #fc0406",
"i c #fc5a59",
"a c #ffffff",
".#aaa",
"..baa",
"...#a",
"....b",
"...cd",
"..bef",
".#ghf",
"ijhhk",
"jhhhf",
"lhhhf",
"afhhf",
"aafhk",
"aaamf"};
