/* XPM */
static char *magick[] = {
/* columns rows colors chars-per-pixel */
"16 15 12 1",
"  c #fffbf0",
". c #040404",
"X c #c0c0c0",
"o c Cyan",
"O c #cbcbcb",
"+ c #66cccc",
"@ c #868686",
"# c #33cccc",
"$ c White",
"% c #008080",
"& c Yellow",
"* c #000080",
/* pixels */
" ...............",
" .             .",
" . ........... .",
" . .XoXoO+++O. .",
"@@@@@@@.o++#o. .",
"@XXXXXX.$$$$$. .",
"@X@%&&X.$$$$$. .",
"@X$*********$. .",
"@X$*********$. .",
"@X@@$$$$$$$.$. .",
"@XX@$@@@$@$... .",
"...@$@$@$$$.   .",
"$$$@$@@@$@$.....",
"$$$@$$$$$$$.$$$$",
"$$$.........$$$$"
};
