/* XPM */
static char *kill_compile[] = {
/* columns rows colors chars-per-pixel */
"18 14 216 2",
"   c black",
".  c #000100",
"X  c #010000",
"o  c #000002",
"O  c #000102",
"+  c #000200",
"@  c #000300",
"#  c #010200",
"$  c #000203",
"%  c #030000",
"&  c #030002",
"*  c gray1",
"=  c #000004",
"-  c #010004",
";  c #010005",
":  c #000304",
">  c #030004",
",  c #030106",
"<  c #020305",
"1  c #000400",
"2  c #000500",
"3  c #000403",
"4  c #030400",
"5  c #030500",
"6  c #020403",
"7  c #030600",
"8  c #020605",
"9  c #030706",
"0  c #040400",
"q  c #040500",
"w  c #060608",
"e  c #030800",
"r  c #030A00",
"t  c #010C00",
"y  c #010E00",
"u  c #040900",
"i  c #070800",
"p  c #060B00",
"a  c #060C00",
"s  c #070B0C",
"d  c #090502",
"f  c #090C00",
"g  c #090C01",
"h  c #0A0C00",
"j  c #0B0F00",
"k  c #0F0D00",
"l  c gray4",
"z  c #0B0B0D",
"x  c #090E0A",
"c  c #0A0E0F",
"v  c #0B0F0E",
"b  c #0C0809",
"n  c #0F0C13",
"m  c #091300",
"M  c #0D1000",
"N  c #0F1312",
"B  c #151A00",
"V  c #171900",
"C  c #131311",
"Z  c #777775",
"A  c #867D98",
"S  c #8C905E",
"D  c #888C75",
"F  c #8B8C7E",
"G  c #90926B",
"H  c #94966E",
"J  c #949B65",
"K  c #919968",
"L  c #9C9E76",
"P  c #838489",
"I  c #84878E",
"U  c #868982",
"Y  c #85898A",
"T  c #868A8D",
"R  c #8A8985",
"E  c #8A8D82",
"W  c #8B8A8F",
"Q  c #8B8C8E",
"!  c #868290",
"~  c #878592",
"^  c #8F879F",
"/  c #8C908F",
"(  c #8F918E",
")  c #8F9297",
"_  c #90968C",
"`  c #969B97",
"'  c #969C92",
"]  c #989C9D",
"[  c #9088A0",
"{  c #9289A4",
"}  c #9490A1",
"|  c #9C97AB",
" . c #A2A2A2",
".. c #AFB3B6",
"X. c #B0B5AF",
"o. c #B4B7AE",
"O. c #BBBBA1",
"+. c #BCBDAD",
"@. c #B2B6B5",
"#. c #B4B6B5",
"$. c #B7B7B7",
"%. c #B2B5BA",
"&. c #B3B8B4",
"*. c #B5B9BC",
"=. c #B7BBBE",
"-. c #B9BEB7",
";. c #BEBBB6",
":. c gray72",
">. c #B9B9B9",
",. c #BBBBB9",
"<. c #B9B8BD",
"1. c #B9BEB8",
"2. c #BABFB9",
"3. c #BCBCBC",
"4. c gray74",
"5. c #BFBFBD",
"6. c gray",
"7. c #BCBFC4",
"8. c #BCBECA",
"9. c #BDC1B0",
"0. c #BCC1BA",
"q. c #BFC4C0",
"w. c #BFC2CB",
"e. c #C2C4AF",
"r. c #C6C5B1",
"t. c #C0C5BF",
"y. c #DDE4A0",
"u. c #DEE3AB",
"i. c #DFE4AA",
"p. c #DFE3B0",
"a. c #E2ECAD",
"s. c #E6EBB5",
"d. c #E9EEB6",
"f. c #E6F3A1",
"g. c #E4F0A6",
"h. c #E6F1A5",
"j. c #E5F0AB",
"k. c #E5F0AC",
"l. c #E5F0AE",
"z. c #EAF1AB",
"x. c #EAF6AA",
"c. c #EBF5AE",
"v. c #ECF7A9",
"b. c #EAF0B2",
"n. c #EDF3B7",
"m. c #F2FCA6",
"M. c #C0C0C0",
"N. c #C3C1C2",
"B. c gray76",
"V. c #C1C6C2",
"C. c #C0C4C5",
"Z. c #C4C0C1",
"A. c #C5C5C5",
"S. c #C6C6C6",
"D. c #C6C7C9",
"F. c #C4C7CE",
"G. c #C7CCC6",
"H. c #C4C8CB",
"J. c #C7CCC8",
"K. c #C8C8C8",
"L. c #CACECD",
"P. c #CDCDCD",
"I. c #CED1C8",
"U. c #D1D5C7",
"Y. c #D6D4D5",
"T. c #DBDFD1",
"R. c #DADCD7",
"E. c #DDDDDD",
"W. c #DFDCE5",
"Q. c #E0DDE8",
"!. c #E0E0C4",
"~. c #E3E5C0",
"^. c #E7E9C4",
"/. c #ECEEC9",
"(. c #EAEEDD",
"). c #EBF1CF",
"_. c #F0F6D4",
"`. c #E3E0E7",
"'. c #E4E7E0",
"]. c #E4E6E3",
"[. c #E3E7E8",
"{. c #E7E5EA",
"}. c #E7E9E6",
"|. c #ECECE4",
" X c #E8EAE9",
".X c #EBEDE8",
"XX c #EBECEE",
"oX c #ECEAEB",
"OX c #ECE7FD",
"+X c #EFF2E7",
"@X c #EFF1EE",
"#X c #F1EDFE",
"$X c #F0F1F3",
"%X c #F2F6F7",
"&X c #F5F4F2",
"*X c #F9F3FF",
"=X c #F9FBF0",
"-X c #F9F8F4",
";X c #FEFCF0",
":X c #FEFFF1",
">X c #FEFFF4",
",X c #FFFFF4",
"<X c #FFFFF6",
"1X c #FCF8F9",
"2X c #FEF8FF",
"3X c #FFFFF8",
"4X c #FEFFFA",
"5X c #FFFEFB",
"6X c #FFFFFA",
"7X c #FCFDFF",
"8X c #FCFFFF",
"9X c #FFFCFF",
"0X c #FFFDFE",
"qX c #FFFDFF",
"wX c #FEFFFF",
"eX c #FFFEFF",
/* pixels */
"%.L.o.9.+.e.O.r.;.Z.Z.N.<.D.2.2.5.3.",
"H.. . g 5 . k . d % : . z $.G.X.,.N.",
"q.: wXwX<X6X2X*XwX1X2XwX. . 0.J.N.3.",
"@.v $X. &X-XwX6X<X;X<X=Xu wX. #.M.>.",
"w.. M :XwX. n.y./.~.M a.. wXwX: >.E.",
"8.: (.. {.. u m.p.B y f.g . : . :  .",
"=.s R.@X`.|.V u r a h.l.).+X[.) w P.",
"C..  XXXQ.oX!.7 a u.c.l._.T.%XT . K.",
"=.N 5 }.OXW.h 5 5 5 v.h.. .X: T . K.",
"7.. <X. #X. k d.^.g y x.5 ].: Y . 3.",
"F.v . U.Y.7 a.z.s.d.y j.5 (.. ] l S.",
"... P.E R F H S G L J K D U ' ) . >.",
"V.x . : n : % b , . . 5 . . 5 . C $.",
"2.2.W P ~ } [ A { ^ | ~ W Q ' ( Z P."
};
