/* XPM */
static char *learn_report[] = {
/* columns rows colors chars-per-pixel */
"16 16 46 1",
"  c #344C7B",
". c #394F7B",
"X c #50699B",
"o c #576F9E",
"O c #5972A2",
"+ c #6D83B0",
"@ c #DF5E57",
"# c #DB596A",
"$ c #DB5B70",
"% c #E0625B",
"& c #E1635D",
"* c #E16761",
"= c #E36C68",
"- c #E46E6D",
"; c #D75D9C",
": c #E8815B",
"> c #EA8A60",
", c #F6AB5D",
"< c #F8B15D",
"1 c #F8B45F",
"2 c #F6B161",
"3 c #F5B668",
"4 c #F5B768",
"5 c #F7B866",
"6 c #F7B867",
"7 c #F9BB64",
"8 c #F9BD65",
"9 c #F9BE66",
"0 c #8C9FC6",
"q c #8EA0C5",
"w c #95A7CC",
"e c #EB8892",
"r c #E6D795",
"t c #F8D497",
"y c #F7CEA7",
"u c #F8CEA4",
"i c #F9E587",
"p c #FAE989",
"a c #FBEE8C",
"s c #FEFD93",
"d c #FDE6B7",
"f c #D7D6D7",
"g c #FEEEC2",
"h c #FEF4D7",
"j c gray100",
"k c None",
/* pixels */
"kkkkkkkkkkkkkkkk",
"kkwwwwwwwwwqkkkk",
"kwXissssss8; kkk",
"kwrXsssssii< fkk",
"kXXXsi$>:ii< fkk",
"kkfOsssiiia< fkk",
"kkk+ss#&&*t8 fkk",
"kkk+ssiiiis8 fkk",
"kkk+ss$e@%s1 fkk",
"kkk+sggdyus< fkk",
"kkk0hs$$-==,.fkk",
"kkkwsjssiip5i kk",
"kkkoii,,3352, fk",
"kkkk           k",
"kkkkkfffffffffff",
"kkkkkkkkkkkkkkkk"
};
