/* XPM */
static char *minimize[]={
"13 11 2 1",
"# c #000000",
". c #c1c1c1",
".............",
".............",
".............",
".............",
".............",
".............",
".............",
".............",
"...######....",
"...######....",
"............."};
