/* XPM */
static char *magick[] = {
/* columns rows colors chars-per-pixel */
"17 15 11 1",
"  c Gray0",
". c #00004a",
"X c #00344a",
"o c #000080",
"O c #009d73",
"+ c #00d26a",
"@ c #ff0010",
"# c #ff6100",
"$ c #ffb66a",
"% c yellow",
"& c None",
/* pixels */
"&&&&&&&&&&&&&&&&&",
"&&&&&ooooooo&&&&&",
"$#@&&o%%%%%o&&+OX",
"$#@X.o%%%%%o.X+OX",
"@@@&&o%%%%%o&&XXX",
"&&&&&o%%%%%o&&&&&",
"$#@&&o%%%%%o&&+OX",
"$#@X.o%%%%%o.X+OX",
"@@@&&o%%%%%o&&XXX",
"&&&&&o%%%%%o&&&&&",
"$#@&&o%%%%%o&&+OX",
"$#@X.o%%%%%o.X+OX",
"@@@&&o%%%%%o&&XXX",
"&&&&&ooooooo&&&&&",
"&&&&&&&&&&&&&&&&&"
};
