/* XPM */
static char *magick[] = {
/* columns rows colors chars-per-pixel */
"16 16 6 1",
"  c Gray0",
". c White",
"X c #bdbebd",
"o c Red",
"O c Blue",
"+ c #00ff80",
/* pixels */
"                ",
" .............. ",
" .............. ",
" .............. ",
" .            . ",
" . .......... X ",
" . .ooooO++++ X ",
" . .oooOOO+++ X ",
" . .ooOOOOO++ X ",
" . .oOOOOOOO+ X ",
" . .OOOOOOOOO X ",
" .            X ",
" ..XXXXXXXXXXXX ",
" .............. ",
" .............. ",
"                "
};
