/* XPM */
static char *magick[] = {
/* columns rows colors chars-per-pixel */
"16 16 9 1",
"  c Gray0",
". c #7f0000",
"X c Gray50",
"o c #000080",
"O c #2e2ea5",
"+ c #800000",
"@ c #808080",
"# c White",
"$ c None",
/* pixels */
"@@XXX..@XX@$$++$",
"X####X...#@X..@@",
"X#####X...X++@@$",
"X#    #X...+@@$$",
"X#######X+++@o$$",
"X##     .++++o$$",
"X######X++@@++$$",
"X##    .+X@$++@$",
"X#####X+@#@$$o+$",
"X###  .+@#@$$o+@",
"X####X.@##@$$o$$",
"X##      #@ooooo",
"X#########X$ooo$",
"X#########X$$o$$",
"XXXXXXXXXXXooooo",
"$$$$$$$$$$$$$$$$"
};
