/* XPM */
static char *magick[] = {
/* columns rows colors chars-per-pixel */
"15 14 43 1",
"  c #0a0b0a",
". c #bdbebd",
"X c #f4f4f4",
"o c #f1f1f4",
"O c #dcdcf4",
"+ c #dbdbf4",
"@ c #c3c3d7",
"# c #808080",
"$ c #fefeff",
"% c #f2f2ff",
"& c #3333ff",
"* c #2c2cff",
"= c #2a2aff",
"- c #3131e4",
"; c #fcfcff",
": c #e8e8ff",
"> c #e6e6ff",
", c #e4e4ff",
"< c #d0d0ff",
"1 c #cfcfff",
"2 c #d4d4ff",
"3 c #cecee1",
"4 c #3636ff",
"5 c #2929ff",
"6 c #3030ff",
"7 c #5b5bff",
"8 c #e9e9e1",
"9 c #d2d2ff",
"0 c #d9d9ff",
"q c #e2e2e1",
"w c #5959ff",
"e c GhostWhite",
"r c #3939ff",
"t c #f7f7ff",
"y c #2626ff",
"u c #5757ff",
"i c #e6e6e4",
"p c Gray91",
"a c #dcdce7",
"s c #dcdcf2",
"d c #dcdcf3",
"f c #e0e0f3",
"g c #d7d7d7",
/* pixels */
"              .",
" XXXoO++++++@ #",
" $$$%&*****=- #",
" ;:>,<1111123 #",
" %45=66666678 #",
" ;9111111110q #",
" %4=6666666wq #",
" $:><1111110q #",
" $$er666666wq #",
" ;:,<1111110q #",
" t&y*******ui #",
" pasdddddddfg #",
"              #",
".##############"
};
