/* XPM */
static char *magick[] = {
/* columns rows colors chars-per-pixel */
"15 13 5 1",
"  c Gray0",
". c Gray50",
"X c #ffbf00",
"o c Gray75",
"O c White",
/* pixels */
"OO.....OOOOOOOO",
"O.oXoXo.OOOOOOO",
".oXoXoXo......O",
".OOOOOOOOOOOO. ",
".OXoXoXoXoXoX. ",
".OoXoXoXoXoXo. ",
".OXoXoXoXoXoX. ",
".OoXoXoXoXoXo. ",
".OXoXoXoXoXoX. ",
".OoXoXoXoXoXo. ",
".OXoXoXoXoXoX. ",
".............. ",
"O              "
};
