/* XPM */
static char *magick[] = {
/* columns rows colors chars-per-pixel */
"16 16 11 1",
"  c Gray75",
". c Gray0",
"X c #8d8d8d",
"o c #fdfd8b",
"O c #ffff66",
"+ c #f0ea5c",
"@ c #e2dc1f",
"# c #d8c801",
"$ c #dc9902",
"% c #c6c641",
"& c #88830a",
/* pixels */
"                ",
"        ...     ",
"       .XXX. .  ",
"           X..X ",
" ...       ...X ",
".oOO......  XXX ",
".ooo+@@@@.      ",
".ooo@####.X     ",
".oo@$..........X",
".o@$.########.X ",
".@$.########.X  ",
".%.$$$$$$$$.X   ",
"..&&&&&&&&.X    ",
"..........X     ",
" XXXXXXXXX      ",
"                "
};
