/* XPM */
static char *out[]={
"5 9 7 1",
"c c #04c204",
"b c #29c929",
"a c #4ad048",
"d c #5ad458",
"e c #88dd88",
"# c #96e396",
". c #ffffff",
"....#",
"...a#",
"..bc#",
".dcce",
"dccc#",
".ccc#",
"..cc#",
"...ce",
"....#"};
