/* XPM */
static char *page_up[]={
"16 16 2 1",
"# c #000000",
". c #bfbfbf",
"................",
".......##.......",
"......####......",
".....######.....",
"....########....",
"...##########...",
"..############..",
"..############..",
".......##.......",
"......####......",
".....######.....",
"....########....",
"...##########...",
"..############..",
"..############..",
"................"};
