/* XPM */
static char *magick[] = {
/* columns rows colors chars-per-pixel */
"21 21 2 1",
"  c Gray0",
". c #bdbebd",
/* pixels */
".....................",
".....................",
".....................",
".....    ...    .....",
".....    ...    .....",
".....    ...    .....",
".....    ...    .....",
".....    ...    .....",
".....    ...    .....",
".....    ...    .....",
".....    ...    .....",
".....    ...    .....",
".....    ...    .....",
".....    ...    .....",
".....    ...    .....",
".....    ...    .....",
".....    ...    .....",
".....    ...    .....",
".....................",
".....................",
"....................."
};
