/* XPM */
static char *pointer[] = {
/* columns rows colors chars-per-pixel */
"11 10 2 1",
"  c black",
". c gray100",
/* pixels */
"...... ....",
"......  ...",
"......   ..",
"          .",
"           ",
"           ",
"          .",
"......   ..",
"......  ...",
"...... ...."
};
