/* XPM */
static char *channel[] = {
/* columns rows colors chars-per-pixel */
"19 16 5 1",
"  c black",
". c blue",
"X c #00FF99",
"o c red",
"O c gray100",
/* pixels */
"OOOOOOOOOOOOOOOOOOO",
"OOOOOOOOOOOOOOOOOOO",
"OOOOOOOOOOOOOOOOOOO",
"OOOOOOOOOOOOOOOOOOO",
"OOO            OOOO",
"OO O ...XXXXooo OOO",
"O OOO ...XXXXooo OO",
"O OOO ...XXXXooo OO",
"O OOO ...XXXXooo OO",
"O OOO ...XXXXooo OO",
"OO O ...XXXXooo OOO",
"OOO            OOOO",
"OOOOOOOOOOOOOOOOOOO",
"OOOOOOOOOOOOOOOOOOO",
"OOOOOOOOOOOOOOOOOOO",
"OOOOOOOOOOOOOOOOOOO"
};
