/* XPM */
static char *magick[] = {
/* columns rows colors chars-per-pixel */
"16 16 10 1",
"  c Gray75",
". c Gray0",
"X c White",
"o c #8d8d8d",
"O c #e0ede0",
"+ c #fdfd8b",
"@ c #e2db46",
"# c #d8c801",
"$ c #ffff66",
"% c #8fa519",
/* pixels */
"                ",
"     ........   ",
"    .XXXXXXX.   ",
"    .X....X.o   ",
"   .OOOXXXX.o   ",
"   .O....OO...  ",
"  .OOOOOOO.+@#. ",
" .........+@#..o",
".++++++$++@#.%.o",
"............%%.o",
".@@@######%.%.o ",
".@@@######%...o ",
"............%.o ",
" .######%%.%.o  ",
"  ..........o   ",
"   ooooooooo    "
};
