/* XPM */
static char *magick[] = {
/* columns rows colors chars-per-pixel */
"4 6 4 1",
"  c #040404",
". c #c0c0c0",
"X c #dddddd",
"o c White",
/* pixels */
"   .",
" oX ",
" oX ",
"   .",
" ooo",
" ooo"
};
