/* XPM */
static char *proc_yellow_Cthred[] = {
/* columns rows colors chars-per-pixel */
"17 17 3 1",
"  c black",
". c yellow",
"X c gray100",
/* pixels */
"XXXXXXXXXXXXXXXXX",
"XXXXXXXXXXX   XXX",
"XXXXXXXXXX XXX XX",
"XXXXXXXXX XXXXX X",
"XXXXX     XXXXXXX",
"XXXX .... XXXXXXX",
"XXX ..... XXXXXXX",
"XX ...... XXXXX X",
"XX ....... XXX XX",
"X .........   XXX",
"X ........... XXX",
"XX ......... XXXX",
"XX ......... XXXX",
"XXX ....... XXXXX",
"XXXX ..... XXXXXX",
"XXXXX     XXXXXXX",
"XXXXXXXXXXXXXXXXX"
};
