/* XPM */
static char *magick[] = {
/* columns rows colors chars-per-pixel */
"16 17 3 1",
"  c Gray0",
". c #4d4da6",
"X c White",
/* pixels */
"................",
"................",
"................",
".XXXXXXXXXXXXXX.",
".XXXXXXXXXXXXXX.",
".XXXXXXXXXXXXXX.",
".XX          XX.",
".XXXXXXXXXXXXXX.",
".XX          XX.",
".XXXXXXXXXXXXXX.",
".XX          XX.",
".XXXXXXXXXXXXXX.",
".XX          XX.",
".XXXXXXXXXXXXXX.",
".XXXXXXXXXXXXXX.",
"................",
"................"
};
