/* XPM */
static char *proc_red_thread[] = {
/* columns rows colors chars-per-pixel */
"18 17 3 1",
"  c black",
". c red",
"X c gray100",
/* pixels */
"XXXXXXXXXXXXXXXXXX",
"XXXXXXXXXX       X",
"XXXXXXXXXXXXX XXXX",
"XXXXXXXXXXXXX XXXX",
"XXXXX     XXX XXXX",
"XXXX .....XXX XXXX",
"XXX ......XXX XXXX",
"XX .......XXX XXXX",
"XX .......XXX XXXX",
"X ........XXX XXXX",
"X ........XXXXXXXX",
"XX ......... XXXXX",
"XX ......... XXXXX",
"XXX ....... XXXXXX",
"XXXX ..... XXXXXXX",
"XXXXX     XXXXXXXX",
"XXXXXXXXXXXXXXXXXX"
};
