/* XPM */
static char *proc_grey_method[] = {
/* columns rows colors chars-per-pixel */
"17 17 3 1",
"  c black",
". c #C0C0C0",
"X c gray100",
/* pixels */
"XXXXXXXXXXXXXXXXX",
"XXXXXXXX XXXXX XX",
"XXXXXXXX  XXX  XX",
"XXXXXXXX  XXX  XX",
"XXXXX    X X X XX",
"XXXX ... X X X XX",
"XXX .... X X X XX",
"XX ..... X X X XX",
"XX ..... XX XX XX",
"X ...... XX XX XX",
"X ...........XXXX",
"XX ......... XXXX",
"XX ......... XXXX",
"XXX ....... XXXXX",
"XXXX ..... XXXXXX",
"XXXXX     XXXXXXX",
"XXXXXXXXXXXXXXXXX"
};
