/* XPM */
static char *magick[] = {
/* columns rows colors chars-per-pixel */
"16 16 7 1",
"  c Gray0",
". c #000084",
"X c Blue",
"o c #00ff80",
"O c Red",
"+ c #868686",
"@ c White",
/* pixels */
"@@@@@@@@@@@@@@@@",
"@..............@",
"@..............@",
"@ @@@@@@@@@@@@ @",
"@ @        @@@ @",
"@ @ @@@@@@ @@@ @",
"@ @ @+++++ @@@ @",
"@ @ @@       @ @",
"@ @ @+ @@@@@@@ @",
"@ @ @@ @OOOOX@ @",
"@ @ @+ @OOOXX@ @",
"@ @ @@ @OOXXX@ @",
"@ @    @OXXXo  @",
"@ @@@@ @XXXoo@@@",
"@@@@@@       @@@",
"@@@@@@@@@@@@@@@@"
};
