/* XPM */
static char *magick[] = {
/* columns rows colors chars-per-pixel */
"16 15 7 1",
"  c White",
". c #000080",
"X c #040404",
"o c Yellow",
"O c #808000",
"+ c #868686",
"@ c #c0c0c0",
/* pixels */
"  ..............",
"  ..............",
"  X   oO       X",
"  X   oO       X",
"+++@oooooO     X",
"+o  OOoOOO oO  X",
"+ ++  oO   oO  X",
"+o+   OO oooooOX",
"+ + ..   OOoOOOX",
"+o+        oO  X",
"+ + .... X OO  X",
"+o+      XXXXXXX",
"XX+ .... X      ",
"  +      X      ",
"  XXXXXXXX      "
};
