/* XPM */
static char *magick[] = {
/* columns rows colors chars-per-pixel */
"19 17 38 1",
"  c Gray0",
". c #080408",
"X c Gray3",
"o c #181418",
"O c #181818",
"+ c #adaaad",
"@ c #adaead",
"# c #b5b2b5",
"$ c #b5b6b5",
"% c #b5babd",
"& c #bdb6bd",
"* c #bdbab5",
"= c #bdbabd",
"- c #bdbebd",
"; c #bdbec6",
": c #c6bec6",
"> c #c6c3bd",
", c #c6c3c6",
"< c #c6c7c6",
"1 c #c6c7ce",
"2 c #cec7ce",
"3 c #cecbce",
"4 c #cecfce",
"5 c #d6cfd6",
"6 c #d6d3d6",
"7 c #dedbde",
"8 c #dedfde",
"9 c #e7e3e7",
"0 c #e7e7e7",
"q c #e7ebef",
"w c #efebef",
"e c #efefef",
"r c #eff3ef",
"t c #f7f3f7",
"y c Gray97",
"u c #f7fbff",
"i c #fffbff",
"p c White",
/* pixels */
"----%-$>--*,,,=@,$+",
"----$<3  O  $5--4&3",
";;;;1  rue7u. $,#-,",
";-;- tqte ywew.$=3$",
"=-< we  t 9. we =,+",
"-,#Xe ei7Xy0t y $<,",
"#: 0e 0ew 0ew t8 $<",
"4- e eete te0w p $3",
"&& y.00w9ewyy9 e ,#",
"<#o8 eiywwt80t 9 --",
"$# etX90ey0te.9wX==",
",,& y y0we8t0 t =-=",
"&<@.ee  ewe  ty :$,",
"-$6#.8ye   9p6 -=3#",
",#=,-  wpt0y O,-=$-",
"-<==-$,     ,=$--=<",
"=-=3,2#$-=6==$=3#=-"
};
