/* XPM */
static char *magick[] = {
/* columns rows colors chars-per-pixel */
"19 17 108 2",
"   c Gray0",
".  c Gray1",
"X  c #050504",
"o  c #0b0000",
"O  c #0d0d02",
"+  c #0a0a09",
"@  c #0a0b0a",
"#  c #0e0d0c",
"$  c #0f0f0e",
"%  c #100c0b",
"&  c #121207",
"*  c #151406",
"=  c #10100a",
"-  c #17170e",
";  c #1a190a",
":  c #131312",
">  c #1d1c10",
",  c #1b1a18",
"<  c #1b1b19",
"1  c #240303",
"2  c #340707",
"3  c #380606",
"4  c #3c0807",
"5  c #390a09",
"6  c #3d1414",
"7  c #212400",
"8  c #20200e",
"9  c #2f2e02",
"0  c #353500",
"q  c #393905",
"w  c #3d3d00",
"e  c #3e3e00",
"r  c #3a3935",
"t  c #500000",
"y  c #550000",
"u  c #580000",
"i  c #590404",
"p  c #5d0102",
"a  c #404005",
"s  c #454602",
"d  c #4a4a00",
"f  c #525200",
"g  c #585800",
"h  c #585801",
"j  c #41403c",
"k  c #44433e",
"l  c #4b433f",
"z  c #474646",
"x  c #4a4142",
"c  c #4e4b45",
"v  c #4d4d47",
"b  c #4f4e48",
"n  c Gray30",
"m  c #4e4f4f",
"M  c #484650",
"N  c #504742",
"B  c #52524b",
"V  c #59584e",
"C  c #575653",
"Z  c #515a59",
"A  c #5e5b55",
"S  c #5c5d56",
"D  c #605d56",
"F  c #616159",
"G  c #62615e",
"H  c #676659",
"J  c #6c6a5c",
"K  c #656366",
"L  c #686868",
"P  c #737273",
"I  c #777374",
"U  c #7e7c70",
"Y  c #7e7e7f",
"T  c #7e8a8a",
"R  c #817f83",
"E  c #8d8e00",
"W  c #939400",
"Q  c #9a9a00",
"!  c #9d9d00",
"~  c #9f9f00",
"^  c #a2a200",
"/  c #afaf00",
"(  c #868379",
")  c #848387",
"_  c Gray55",
"`  c #938f86",
"'  c #939187",
"]  c #91968c",
"[  c #9e9c8d",
"{  c #9e9c91",
"}  c #9a9a9a",
"|  c #9da296",
" . c #9ea397",
".. c #a09e93",
"X. c #a0a396",
"o. c #a4a296",
"O. c #a2a599",
"+. c #afac9f",
"@. c #a7a7a7",
"#. c #adb3a5",
"$. c #b2b1a4",
"%. c #b7b5a7",
"&. c Gray78",
"*. c #ebeada",
"=. c #eeeedd",
"-. c #e9e9e9",
";. c Gray94",
":. c None",
/* pixels */
":.:.:.:.:.:.' = 8 - C :.:.:.:.:.:.:.:.",
":.:.:.:.:.+., 9 E f O > H :.:.:.:.:.:.",
":.%.< $ B :.:.[ ; w Q W s K :.:.:.:.:.",
":.:.{   j :.:.:.) 7 ^ / d M :.:.:.:.:.",
"r :.o.  k :.:.:.` o 0 ~ g * J :.:.:.:.",
"  @ X . v :.:.] 4 p : & e ! a P :.:.:.",
"$ + # z Y F X.3 t A :.R q h G :.:.:.:.",
":.:.:...m T 6 y S :.:.:.U V :.:.:.:.:.",
":.:.:.:.( x I l :.:.:.:.:.:.:.:.:.:.:.",
":.:.:. .5 i Z         L -.:.:.:.:.:.:.",
":.:.| 2 y D ..    :.;.  L :.:.:.:.:.:.",
":.O.2 y b =.:.    :.:.    :.:.@.    } ",
"#.1 u c *.:.:.    :.-.  L :.@.  :.:.  ",
"$.% N *.:.:.:.        L :.:.          ",
":.:.:.:.:.:.:.    :.@.n :.:.    :.:.:.",
":.:.:.:.:.:.:.    :.:.L n :.}   &.-.  ",
":.:.:.:.:.:.:.    :.:.:.  } :.@.    _ "
};
