/* XPM */
static char *magick[] = {
/* columns rows colors chars-per-pixel */
"20 21 76 1",
"  c Gray0",
". c Gray1",
"X c #050504",
"o c #0b0000",
"O c #0d0d02",
"+ c #0a0a09",
"@ c #0a0b0a",
"# c #0e0d0c",
"$ c #0f0f0e",
"% c #121207",
"& c #151406",
"* c #10100a",
"= c #17170e",
"- c #1a190a",
"; c #131312",
": c #1d1c10",
"> c #1b1a18",
", c #1b1b19",
"< c #340707",
"1 c #3c0807",
"2 c #212400",
"3 c #20200e",
"4 c #2f2e02",
"5 c #353500",
"6 c #3d3d00",
"7 c #3e3e00",
"8 c #3a3935",
"9 c #5d0102",
"0 c #404005",
"q c #454602",
"w c #4a4a00",
"e c #525200",
"r c #585800",
"t c #41403c",
"y c #44433e",
"u c #4b433f",
"i c Gray30",
"p c #4e4f4f",
"a c #484650",
"s c #52524b",
"d c #59584e",
"f c #575653",
"g c #676659",
"h c #6c6a5c",
"j c #656366",
"k c #686868",
"l c #737273",
"z c #7e7c70",
"x c #8d8e00",
"c c #939400",
"v c #9a9a00",
"b c #9d9d00",
"n c #9f9f00",
"m c #a2a200",
"M c #afaf00",
"N c #848387",
"B c Gray55",
"V c #938f86",
"C c #939187",
"Z c #91968c",
"A c #9e9c8d",
"S c #9e9c91",
"D c #9a9a9a",
"F c #a4a296",
"G c #aca99d",
"H c #afac9f",
"J c #a7a7a7",
"K c #b0aea1",
"L c #b7b5a7",
"P c #b8b6a9",
"I c Gray78",
"U c Gray85",
"Y c #e1e1e1",
"T c #e9e9e9",
"R c White",
"E c None",
/* pixels */
"EEEEEEEEEC*3=fEEEEEE",
"EEEEEEEEH>4xeO:gEEEE",
"EEEL,$sEEEA-6vcqjEEE",
"EEEES tEEEEN2mMwaEEE",
"EG8EF yEEEEVo5nr&hEE",
"EK @X.GEEEZ19;%7b0lE",
"EP$+#GG    EEEzdddGE",
"EEEEEEE  uE kEEEEEEE",
"EEEEEEE  EE  EEJ  DE",
"EEEEEEG  EE kEJ EE B",
"EEEEEGG    kEE      ",
"EEEEG<E  EJ UE  EEEE",
"EEEEEEE  EEkiED ITEB",
"      E  EEU DEJ  BE",
"EE  EEEEEEEEEEEEEEEE",
"EE  E  ppJ  DEEJ  DE",
"EE  E  YJ EE BJ EE B",
"EE  E  E            ",
"EE  E  E  EEEE  EEEE",
"EE  E  ED IT BD IT B",
"EE  E  EEJ  BEEJ  BR"
};
