/* XPM */
static char *magick[] = {
/* columns rows colors chars-per-pixel */
"17 15 26 1",
"  c #00004a",
". c #00344a",
"X c #757576",
"o c #000084",
"O c #154c90",
"+ c #164c90",
"@ c #1a5194",
"# c #1e5294",
"$ c #1f5596",
"% c #24538f",
"& c #205192",
"* c #215697",
"= c #255390",
"- c #215798",
"; c #265899",
": c #265998",
"> c #009e73",
", c #00d36b",
"< c #ff0010",
"1 c #ff6100",
"2 c #ffb66b",
"3 c #949698",
"4 c #a0adc6",
"5 c #adcfef",
"6 c #fbffff",
"7 c White",
/* pixels */
"77777ooooooo77777",
"21<77o55555o77,>.",
"21<. o55555o .,>.",
"<<<77o55555o77...",
"77777o55555o77777",
"XXXXXXX3555o77,>.",
"X766777X555o .,>.",
"X7::@;7X555o77...",
"X77$O&7X555o77777",
"X7**+%7X555o77,>.",
"X7*-7=7X555o .,>.",
"X7#7777X555o77...",
"X7-4777Xoooo77777",
"X777777X777777777",
"XXXXXXXX777777777"
};
