/* XPM */
static char *reference_to_learn_report[] = {
/* columns rows colors chars-per-pixel */
"16 16 53 1",
"  c black",
". c #344C7B",
"X c #394F7B",
"o c #757576",
"O c #154C90",
"+ c #1A5194",
"@ c #1E5294",
"# c #1F5596",
"$ c #24538F",
"% c #205192",
"& c #215697",
"* c #255390",
"= c #215798",
"- c #265899",
"; c #265998",
": c #50699B",
"> c #5972A2",
", c #DF5E57",
"< c #DB5B70",
"1 c #E0625B",
"2 c #E1635D",
"3 c #E16761",
"4 c #E36C68",
"5 c #E46E6D",
"6 c #D75D9C",
"7 c #E8815B",
"8 c #EA8A60",
"9 c #F6AB5D",
"0 c #F8B15D",
"q c #F8B45F",
"w c #F6B161",
"e c #F5B668",
"r c #F7B866",
"t c #F7B867",
"y c #F9BB64",
"u c #F9BD65",
"i c #F9BE66",
"p c #949698",
"a c #8EA0C5",
"s c #95A7CC",
"d c #A0ADC6",
"f c #E6D795",
"g c #F8D497",
"h c #F7CEA7",
"j c #F8CEA4",
"k c #F9E587",
"l c #FAE989",
"z c #FBEE8C",
"x c #FEFD93",
"c c #D7D6D7",
"v c #FBFFFF",
"b c gray100",
"n c None",
/* pixels */
"nnnnnnnnnnnnnnnn",
"nnsssssssssannnn",
"ns:kxxxxxxu6.nnn",
"nsf:xxxxxkk0.cnn",
"n:::xk<87kk0.cnn",
"nnc>xxxkkkz0.cnn",
"ooooooop23gu.cnn",
"obvvbbbokkxu.cnn",
"ob--+-bo,1xq.cnn",
"obb#O%bohjx0.cnn",
"ob&&O$bo5449Xcnn",
"ob&=b*bokklrk.nn",
"ob@bbbboeerw9.cn",
"ob&dbbbo.......n",
"obbbbbbocccccccc",
"oooooooonnnnnnnn"
};
