/* XPM */
static char *magick[] = {
/* columns rows colors chars-per-pixel */
"15 16 33 1",
"  c #000400",
". c #000408",
"X c #080400",
"o c #080408",
"O c #00007b",
"+ c #757576",
"@ c #000084",
"# c Blue",
"$ c #154c90",
"% c #164c90",
"& c #1a5194",
"* c #1e5294",
"= c #1f5596",
"- c #24538f",
"; c #205192",
": c #215697",
"> c #255390",
", c #215798",
"< c #265899",
"1 c #265998",
"2 c #848684",
"3 c #8c868c",
"4 c #949698",
"5 c #bdbebd",
"6 c #a0adc6",
"7 c #bdc3bd",
"8 c #c6bebd",
"9 c #c6bec6",
"0 c #c6c3c6",
"q c #d6d7d6",
"w c #e7ebe7",
"e c #fbffff",
"r c White",
/* pixels */
"rr2222222222rrr",
"rr2rrrrrrrr23qr",
"rr2rrrrrrrr2w2r",
"rr@#@rrrrrro o ",
"rO2rrrOrrrOr50 ",
"r#2rr@#@r@#@r5o",
"+++++++4rrOrr5o",
"+reerrr+rrrrr7o",
"+r11&<r+rrrrr5o",
"+rr=$;r+2222r5o",
"+r::%-r+rrrrr7o",
"+r:,r>r+2222r5o",
"+r*rrrr+rrrrr5o",
"+r,6rrr+557978.",
"+rrrrrr+ o o .X",
"++++++++rrrrrrr"
};
