/* XPM */
static char *magick[] = {
/* columns rows colors chars-per-pixel */
"15 16 31 1",
"  c #000400",
". c #080408",
"X c #00007b",
"o c #757576",
"O c #000084",
"+ c Blue",
"@ c #154c90",
"# c #164c90",
"$ c #1a5194",
"% c #1e5294",
"& c #1f5596",
"* c #24538f",
"= c #205192",
"- c #215697",
"; c #255390",
": c #215798",
"> c #265899",
", c #265998",
"< c #848684",
"1 c #8c868c",
"2 c #949698",
"3 c #bdbebd",
"4 c #a0adc6",
"5 c #bdc3bd",
"6 c #a5cbef",
"7 c #c6bec6",
"8 c #c6c3c6",
"9 c #d6d7d6",
"0 c #e7ebe7",
"q c #fbffff",
"w c White",
/* pixels */
"ww<<<<<<<<<<www",
"ww<wwwwwwww<19w",
"ww<www+wwww<0<w",
"ww<wwwOwwww. . ",
"ww<www+X+6ww38 ",
"ww<wwwXww+www3.",
"ooooooo2wOwww3.",
"owqqwwwow+www5.",
"ow,,$>wowwwww3.",
"oww&@=wo<<<<w3.",
"ow--#*wowwwww5.",
"ow-:w;wo<<<<w3.",
"ow%wwwwowwwww3.",
"ow:4wwwo535757 ",
"owwwwwwo . .  .",
"oooooooowwwwwww"
};
