/* XPM */
static char *magick[] = {
/* columns rows colors chars-per-pixel */
"19 17 20 1",
"  c Gray0",
". c #636163",
"X c #757576",
"o c #154c90",
"O c #164c90",
"+ c #1a5194",
"@ c #1e5294",
"# c #1f5596",
"$ c #24538f",
"% c #205192",
"& c #215697",
"* c #255390",
"= c #215798",
"- c #265899",
"; c #265998",
": c #73a2de",
"> c #949698",
", c #a0adc6",
"< c #fbffff",
"1 c White",
/* pixels */
"1                 1",
"1 111111111111111 .",
"1 111111111111111 .",
"1 11:::::1:::::11 .",
"1 11:::::1:::::11 .",
"1 11:::::1:::::11 .",
"1 1111:11111:1111 .",
"XXXXXXX>:::::::11 .",
"X1<<111X:::::::11 .",
"X1;;+-1X1:111:111 .",
"X11#o%1X:::1:::11 .",
"X1&&O$1X:::1:::11 .",
"X1&=1*1X111111111 .",
"X1@1111X111111111 .",
"X1=,111X          .",
"X111111X...........",
"XXXXXXXX11111111111"
};
