/* XPM */
static char *magick[] = {
/* columns rows colors chars-per-pixel */
"15 16 27 1",
"  c #000400",
". c #080408",
"X c #757576",
"o c #154c90",
"O c #164c90",
"+ c #1a5194",
"@ c #1e5294",
"# c #1f5596",
"$ c #24538f",
"% c #205192",
"& c #215697",
"* c #255390",
"= c #215798",
"- c #265899",
"; c #265998",
": c #848684",
"> c #8c868c",
", c #949698",
"< c #bdbebd",
"1 c #a0adc6",
"2 c #bdc3bd",
"3 c #c6bec6",
"4 c #c6c3c6",
"5 c #d6d7d6",
"6 c #e7ebe7",
"7 c #fbffff",
"8 c White",
/* pixels */
"88::::::::::888",
"88:88888888:>58",
"88:88888888:6:8",
"88:8::::::8. . ",
"88:888888888<4 ",
"88:88888:::88<.",
"XXXXXXX,88888<.",
"X877888X:::882.",
"X8;;+-8X88888<.",
"X88#o%8X::::8<.",
"X8&&O$8X888882.",
"X8&=8*8X::::8<.",
"X8@8888X88888<.",
"X8=1888X<<2323 ",
"X888888X . .  .",
"XXXXXXXX8888888"
};
