/* XPM */
static char *magick[] = {
/* columns rows colors chars-per-pixel */
"18 18 7 1",
"  c Gray0",
". c #08b608",
"X c #39d339",
"o c #6be36b",
"O c #8c8e8c",
"+ c #bdbebd",
"@ c #c6c3c6",
/* pixels */
"++++++++++++++++++",
"++++++++++++++++++",
"++++++++ ++++++ ++",
"+++++++  +++++  ++",
"++++++ o ++++ o ++",
"+++++ oo +++ oo ++",
"++++ Xoo ++ Xoo ++",
"+++ .XXo + .XXo ++",
"++ ..XXX  ..XXX ++",
"+O ...XX  ...XX ++",
"++O ...X O ...X ++",
"+++O ... +O ... ++",
"++++O .. ++O .. ++",
"+++++O . +++O . ++",
"++++++O  ++++O  ++",
"++++++++ +++++O ++",
"++++++++++++++++++",
"+++@@@@@@@@@++++++"
};
