/* XPM */
static char *magick[] = {
/* columns rows colors chars-per-pixel */
"13 18 8 1",
"  c Gray0",
". c #08b608",
"X c #39d339",
"o c #6be36b",
"O c #8c8e8c",
"+ c #bdbebd",
"@ c #c6c3c6",
"A c #c9d3f2",
/* pixels */
"@++++++++++++",
"@++++++++++++",
"@+ ++++++++++",
"@+  +++++++++",
"@+ o ++++++++",
"@+ oo +++++++",
"@+ ooX ++++++",
"@+ oXX. +++++",
"@+ XXX.. ++++",
"@+ XX... O+++",
"@+ X.++    ++",
"@+ ..+ A AA +",
"@+ .. AA AAA ",
"@+ .  AA AAA ",
"@+  O AA AAA ",
"@+ O+ AAAAAA ",
"@++O++ AAAA +",
"@++@@++    ++"
};
