/* XPM */
static char *magick[] = {
/* columns rows colors chars-per-pixel */
"20 16 3 1",
"  c Gray0",
". c Red",
"X c White",
/* pixels */
"XXXXXXXXXXXXXXXXXXXX",
"XXXXXXXXXXXXXXXXXXXX",
"XXXXXXXXXXXXXXXXXXXX",
"XXXXX...XXXXXXXXXXXX",
"XXXXX.XXXXXXXXXXXXXX",
"XXXXX.XXX        XXX",
"XXXXX.XXX        XXX",
"XXXXX.XXX        XXX",
"XXXXX.XXX        XXX",
"XXXXX.XXX        XXX",
"XXXXX.XXX        XXX",
"XXXXX.XXXXXXXXXXXXXX",
"XXX...XXXXXXXXXXXXXX",
"XXXXXXXXXXXXXXXXXXXX",
"XXXXXXXXXXXXXXXXXXXX",
"XXXXXXXXXXXXXXXXXXXX"
};
