/* XPM */
static char *sc_main[]={
"16 13 189 2",
".8 c #000000",
"aD c #000100",
".# c #000104",
"aa c #000105",
"a. c #00010a",
".k c #000200",
"aw c #000300",
".a c #000304",
"av c #000400",
".c c #000404",
".9 c #000405",
"aI c #000600",
"aL c #000700",
"ae c #000800",
"af c #000a00",
"aW c #000a01",
".T c #000b10",
"at c #001700",
".C c #010000",
"a6 c #010004",
"aV c #010009",
"aC c #010800",
".j c #020f06",
"ay c #030000",
"aS c #030002",
"aU c #030305",
"aJ c #03080b",
"ap c #040000",
".v c #040300",
"#7 c #04030b",
"Qt c #060004",
"aQ c #060100",
"#6 c #060407",
".b c #060e10",
".m c #070000",
".S c #070803",
"a# c #070a13",
"aN c #080000",
"aj c #080300",
"ah c #080b00",
"aP c #090000",
"aA c #090601",
"ac c #0a0000",
"al c #0b0207",
"#m c #0b0706",
"aF c #0c0100",
"#R c #0c0401",
".D c #0d0000",
".l c #0d0502",
"a4 c #0f0414",
"ar c #110400",
".n c #110d0c",
"a1 c #110e07",
".L c #120000",
"a0 c #120500",
"aE c #120f0a",
".K c #140000",
"aZ c #140300",
"#C c #160000",
".o c #1a0006",
"#n c #200b0a",
".M c #240000",
".J c #280100",
".0 c #4c0000",
".1 c #4d0000",
"#E c #772c26",
"#P c #7a2f2c",
".3 c #9b1c25",
".2 c #aa2528",
"#i c #ac202b",
"#b c #af241d",
".Y c #b52026",
".Z c #ba191e",
"#F c #bd2228",
"#z c #c0172a",
"#O c #c02133",
"#e c #c61a06",
"#G c #c9080d",
"#q c #cb2726",
"#M c #cd0e15",
"#f c #cd2a17",
"#N c #ce091d",
"#K c #ce1407",
"#g c #cf080b",
"#h c #d31322",
"#I c #d3170b",
"#H c #d61913",
"#L c #d61b16",
"#J c #d71c0d",
"#y c #dc0117",
"aH c #e1f6e3",
"#v c #e30600",
"aX c #e4fef1",
"#u c #e70600",
"#c c #e81015",
"#r c #ea1311",
".u c #edfef6",
"au c #edfff1",
"#d c #ee0a0b",
"aB c #eef3ec",
".x c #eef4ea",
".d c #eefffe",
"#s c #f00000",
"ax c #f1f2ea",
"#t c #f30000",
"#w c #f40905",
"ao c #f4f6f5",
".t c #f4ffff",
"a5 c #f5eaf8",
"aM c #f5fffa",
".i c #f5fffd",
"aK c #f5ffff",
".F c #f7f2ee",
"a2 c #f7f8f3",
"an c #f7ffff",
".U c #f8fefc",
"am c #f8fefe",
"#x c #f90f18",
"as c #f9f7e8",
".w c #f9fff8",
"ag c #f9fffb",
".e c #f9ffff",
".h c #fafcf9",
"#8 c #fbf5ff",
"aR c #fbf7f8",
".r c #fbf9fa",
".R c #fbfbf1",
"#T c #fbfdfc",
"#4 c #fbfff6",
"ab c #fbffff",
"#5 c #fcfef9",
".s c #fcffff",
"az c #fdf8f4",
".E c #fef5f6",
".7 c #fefefc",
"#9 c #fefeff",
"#j c #ffdbe4",
"#Y c #ffe1e4",
"#a c #ffe4d8",
"#A c #ffe5e8",
"#p c #ffe7dd",
".X c #ffe7de",
".4 c #ffe7ea",
"#1 c #ffe7f1",
".P c #ffe8e2",
".O c #ffe9e4",
"#0 c #ffe9e9",
"#V c #ffe9f6",
"#2 c #ffeaee",
"#W c #ffeaf2",
"#X c #ffecf1",
"#o c #ffede4",
"#Z c #ffedef",
"#k c #ffeeef",
"#U c #ffeffa",
".H c #fff1ed",
".I c #fff1ef",
".f c #fff1fc",
"## c #fff2e9",
".N c #fff2ef",
".5 c #fff3f1",
"#B c #fff4ef",
"aq c #fff5f1",
"#D c #fff6ed",
".y c #fff6ef",
".g c #fff6ff",
"aO c #fff7ee",
".W c #fff8ec",
".Q c #fff9ed",
"#Q c #fff9ef",
"#S c #fffaff",
".6 c #fffbf8",
"ak c #fffbfd",
"#3 c #fffcf3",
".z c #fffcf4",
".G c #fffcf6",
"#l c #fffcfb",
".p c #fffcfd",
".V c #fffdf6",
"a3 c #fffdff",
".A c #fffef3",
"aY c #fffef4",
"ad c #fffef6",
"aT c #fffeff",
"aG c #fffff3",
".B c #fffff4",
"ai c #fffff8",
"#. c #fffffa",
".q c #fffffd",
"Qt.#.a.b.c.d.e.f.g.h.i.j.k.l.m.n",
".o.p.q.r.s.t.u.k.v.w.x.y.z.A.B.C",
".D.E.F.G.H.I.J.K.L.M.N.O.P.Q.R.S",
".T.U.V.W.X.Y.Z.0.1.2.3.4.5.6.7.8",
".9#.###a#b#c#d#e#f#g#h#i#j#k#l#m",
"#n#o#p#q#r#s#t#u#v#w#x#y#z#A#B.m",
"#C#D#E#F#G#H#I#J#K#L#M#N#O#P#Q#R",
"#S#T#l#U#V#W#X#Y#Z#0#Z#1#2#3#4#5",
"#6.c.9#7#8#9a.a#aaab.qacadaeafag",
"ahaiajakalaman.eaoapaqarasatauav",
"awaxayazaAaBaCaDaEaF.GacaGaeaHaI",
"aJaKaLaMaLaGaN#3aOaP.GaQaRaSaTaU",
"aVaKaWaXaIaYaZa0.ma1a2aUa3a4a5a6"};
