/* XPM */
static char *magick[] = {
/* columns rows colors chars-per-pixel */
"16 16 3 1",
"  c Gray0",
". c Red",
"X c White",
/* pixels */
"XXXXXXXXXXXXXXXX",
"XXXXXXXXXXXXXXXX",
"XXXXXXXXXXXXXXXX",
"XXXX...X XXXXXXX",
"XXXX.XXX  XXXXXX",
"XXXX.XXX   XXXXX",
"XXXX.XXX    XXXX",
"XXXX.XXX     XXX",
"XXXX.XXX     XXX",
"XXXX.XXX    XXXX",
"XXXX.XXX   XXXXX",
"XXXX.XXX  XXXXXX",
"XX...XXX XXXXXXX",
"XXXXXXXXXXXXXXXX",
"XXXXXXXXXXXXXXXX",
"XXXXXXXXXXXXXXXX"
};
