/* XPM */
static char *magick[] = {
/* columns rows colors chars-per-pixel */
"70 5 6 1",
"  c Gray60",
". c Gray80",
"X c #333366",
"o c #330066",
"O c #003333",
"+ c White",
/* pixels */
" .................................................................... ",
" ..XXXXX....X..X..X..X..X..X..X..X..X..X..X..X..o..X..X.....XXXXO.... ",
" ...oXX......+..+..+..+..+..+..+..+..+..+..+..+..+..+..+.....oXX..... ",
" ....X........................................................X...... ",
"......................................................................"
};
