/* XPM */
static char *magick[] = {
/* columns rows colors chars-per-pixel */
"16 14 7 1",
"  c Gray0",
". c #8b8d8b",
"X c #94a1de",
"o c #a4b2e6",
"O c #c5d2ee",
"+ c #dedef6",
"@ c None",
/* pixels */
"@@@@@@@@@@@@@@@@",
"@@@@@@@@@@@@@@@@",
"@@    @@@@@@@@@@",
"@ + X+ @@@@@@@@@",
" ++ X+o @@   @  ",
" +O XOo .@ . . .",
" oO XOo .  .   .",
" ooOOoo .@..@..@",
"@ oXXX .@@@@@@@@",
"@.    .@@@   @  ",
"@@@...@@@@ . . .",
"@@@@@@@@@  .   .",
"@@@@@@@@@@..@..@",
"@@@@@@@@@@@@@@@@"
};
