/* XPM */
static char *down[]={
"12 5 2 1",
"# c #000000",
". c #bfbfbf", 
               
".##########.",
"..########..",
"...######...",
"....####....",
".....##....."};
