/* XPM */
static char *up[]={
"12 5 2 1", 
"# c #000000",
". c #bfbfbf",
".....##.....",
"....####....",
"...######...",
"..########..",
".##########."};

