/* XPM */
static char *magick[] = {
/* columns rows colors chars-per-pixel */
"6 7 3 1",
"  c Red",
". c White",
"g c Red",
/* pixels */
".gggg.",
".g  g.",
"gg  gg",
"gg  gg",
".g  g.",
".gggg.",
"......"
};
