/* XPM */
static char *magick[] = {
/* columns rows colors chars-per-pixel */
"23 17 18 1",
"  c Gray0",
". c #000400",
"X c #000008",
"o c #000808",
"O c #000c08",
"+ c #080000",
"@ c #080008",
"# c #080c08",
"$ c #100000",
"% c #100008",
"& c #180000",
"* c #100818",
"= c #180410",
"- c Red",
"; c #b5bebd",
": c #bdbabd",
"> c #bdbebd",
", c #b5c3bd",
/* pixels */
">>>>>>>>>>>>>>>>>>>>>>>",
">>>>>>>>>>>>>>>>>>>>>>>",
">>>>>>>>>>>>>>>>>>>>>>>",
">>>>>>>>>>>>>>>>>::>>>>",
">>>>>>>>>>>>>>>>>>>>>>>",
">>>>>>>>>>>. #     >>>>",
"::>>>>:::::>>>>>>>>>>>>",
">>>>>>>>>>>>>+  O  >>>>",
">>>>>----->>>>>>>>>>>>>",
">>>>->>>>>>>>= Xo. >>>>",
">>>:->>>>>>>>>>>>>>>>>>",
">>>>->>>>>>&$%@*XX >>>>",
">>>>->>->>>>>>>>>>>>>>,",
">>>>->>-->>>>>>>>>>>>>,",
">>>>>----->>>>>>>>>>>>;",
">>>>>>>-->>>>>>>>>>>>>>",
">>>>>>>->>>>>>>>>>>>>>>"
};
