/* XPM */
static char *magick[] = {
/* columns rows colors chars-per-pixel */
"19 15 3 1",
"  c Gray0",
". c Red",
"X c #bdbebd",
/* pixels */
"XXXXXXXXXXXXXXXXXXX",
"XXX.......XXXXXXXXX",
"XX.XXXXXXXXXXXXXXXX",
"XX.XXXXXXXXXXXXXXXX",
"XX.XX.XXX        XX",
"XX.XX..XXXXXXXXXXXX",
"XXX.....XXXX     XX",
"XXXXX..XXXXXXXXXXXX",
"XXXXX.XXXXXX     XX",
"XXXXXXXXXXXXXXXXXXX",
"XXXXXXXXX        XX",
"XXXXXXXXXXXXXXXXXXX",
"XXXXXXXXXXXXXXXXXXX",
"XXXXXXXXXXXXXXXXXXX",
"XXXXXXXXXXXXXXXXXXX"
};
