/* XPM */
static char *magick[] = {
/* columns rows colors chars-per-pixel */
"19 19 3 1",
"  c Gray0",
". c Red",
"X c #bdbebd",
/* pixels */
"XXXXXXXXXXXXXXXXXXX",
"XXXXXXXXXXXXXXXXXXX",
"XXX.....XXXXXXXXXXX",
"XX.XXXXXXXXXXXXXXXX",
"XX.XXXXXXXXXXXXXXXX",
"XX.XXXXXXXXXXXXXXXX",
"XX.XXXXXX        XX",
"XX.XXXXXXXXXXXXXXXX",
"XX.XXXXXXXX      XX",
"XX.XXXXXXXXXXXXXXXX",
"XX.XXXXXXXX      XX",
"XX.XXXXXXXXXXXXXXXX",
"XX.XX.XXX        XX",
"XX.XX..XXXXXXXXXXXX",
"XXX.....XXXXXXXXXXX",
"XXXXX..XXXXXXXXXXXX",
"XXXXX.XXXXXXXXXXXXX",
"XXXXXXXXXXXXXXXXXXX",
"XXXXXXXXXXXXXXXXXXX"
};
