/* XPM */
static char *magick[] = {
/* columns rows colors chars-per-pixel */
"11 9 5 1",
"  c Blue",
". c White",
"X c #868686",
"o c Red",
"O c #00ff99",
/* pixels */
"          .",
"          X",
"          X",
"          X",
"oooooOOOOOX",
"oooooOOOOOX",
"oooooOOOOOX",
"oooooOOOOOX",
".XXXXXXXXXX"
};
