/* XPM */
static char *sync_time[] = {
/* columns rows colors chars-per-pixel */
"16 16 134 2",
"   c black",
".  c #74879D",
"X  c #788BA0",
"o  c #7A8DA3",
"O  c #7C90A5",
"+  c #7E91A6",
"@  c #7F92A7",
"#  c #D09D3D",
"$  c #D3A13D",
"%  c #DDAB3E",
"&  c #D29F42",
"*  c #D5A249",
"=  c #D6A34B",
"-  c #D7A34C",
";  c #D7A44D",
":  c #D8A44F",
">  c #DAA74C",
",  c #DAA846",
"<  c #DEAC40",
"1  c #DFAD44",
"2  c #DBA84F",
"3  c #DCA857",
"4  c #DFAC52",
"5  c #DCA858",
"6  c #DCA859",
"7  c #DCA959",
"8  c #DDA95A",
"9  c #DDA95B",
"0  c #DEAA5C",
"q  c #DEAA5D",
"w  c #DFAC5B",
"e  c #E0AE47",
"r  c #E1AF48",
"t  c #E2AF55",
"y  c #E2B146",
"u  c #E6B645",
"i  c #E2B04D",
"p  c #E3B04F",
"a  c #E3B14E",
"s  c #E4B24A",
"d  c #E5B44E",
"f  c #EBBA47",
"g  c #EBBC42",
"h  c #ECBC41",
"j  c #ECBC43",
"k  c #EEBF41",
"l  c #ECBD44",
"z  c #ECBC46",
"x  c #E2B050",
"c  c #E3B150",
"v  c #E3B152",
"b  c #E3B153",
"n  c #EFC03D",
"m  c #EFC03E",
"M  c #F0C13E",
"N  c #F3C53A",
"B  c #F3C53C",
"V  c #F2C43F",
"C  c #F5C838",
"Z  c #F7C93A",
"A  c #F7CA38",
"S  c #F7CA3A",
"D  c #F8CA38",
"F  c #F8CB38",
"G  c #F9CC38",
"H  c #FACD38",
"J  c #FACD3A",
"K  c #FACE38",
"L  c #FACE39",
"P  c #FBCE39",
"I  c #FBCF39",
"U  c #FBCE3A",
"Y  c #FCCF39",
"T  c #FDD039",
"R  c #FED239",
"E  c #FFD339",
"W  c #F0C140",
"Q  c #F0C240",
"!  c #8194AA",
"~  c #8496A9",
"^  c #8497AD",
"/  c #8498AD",
"(  c #8599AE",
")  c #8699AE",
"_  c #879BB0",
"`  c #889BB0",
"'  c #889CB1",
"]  c #8B9EB1",
"[  c #8B9FB3",
"{  c #8B9FB4",
"}  c #8D9EB1",
"|  c #8C9FB3",
" . c #8FA2B7",
".. c #91A3B5",
"X. c #91A5BA",
"o. c #93A5B8",
"O. c #92A6BA",
"+. c #94A7BC",
"@. c #95A8BC",
"#. c #98A9B9",
"$. c #9BADBE",
"%. c #9DACBB",
"&. c #9DADBD",
"*. c #9EAEBD",
"=. c #A0AEBC",
"-. c #9CAFC1",
";. c #9DAFC2",
":. c #A0B1C1",
">. c #A0B2C3",
",. c #A1B3C4",
"<. c #A7B5C2",
"1. c #ABBBCA",
"2. c #AFBCC8",
"3. c #AEBDCB",
"4. c #AEBECD",
"5. c #B3C0CB",
"6. c #B1C0CE",
"7. c #B2C1CE",
"8. c #B2C1CF",
"9. c #B7C4CE",
"0. c #B9C7D4",
"q. c #BBC8D3",
"w. c #BAC9D6",
"e. c #BCCAD6",
"r. c #BFCBD5",
"t. c #BCCBD8",
"y. c #BECCD8",
"u. c #C0CDD7",
"i. c #C0CED9",
"p. c #C1CFD9",
"a. c #C3D0DA",
"s. c #C4D1DA",
"d. c #C5D1DB",
"f. c None",
/* pixels */
"f.f.f.f.f.0 0 0 0 3 7 f.f.f.q f.",
"f.f.f.q 0 v f M m z p 3 0 0 w f.",
"f.f.q t m C D J J J G B 4 k b f.",
"f.q t N J C g y y k J I J G b f.",
"f.q M D B > - - * * , U Y Y d f.",
"q d C C > - f.f.f.& M E Y Y p f.",
"q k C u ; f.f.f.# $ % < 1 1 2 f.",
"0 k D r f.f.f.f.f.f.f.f.} } } } ",
"0 b s > f.f.f.f.f.f.f.f.] a.e.) ",
"f.} } } } } } } f.f.f.) $.y.6._ ",
"f.} =.<.3.*.o f.f.f.f._ w.y.,.{ ",
"f.} <.2.2.@ @ f.f.) | 1.y.w.O.f.",
"f.} 2.9.e.u.*...o.>.0.y.e.-.O.f.",
"f.} %.~ q.d.d.d.a.y.y.w.;.+.f.f.",
"f.} . . o #.3.6.6.4.>.@.+.f.f.f.",
"f...f.f.f.@ ! ^ ] [  .f.f.f.f.f."
};
