/* XPM */
static char *close[]={
"13 12 2 1",
". c None",
"# c #303030",
".............",
".............",
".............",
"..##....##...",
"...##..##....",
"....####.....",
".....##......",
"....####.....",
"...##..##....",
"..##....##...",
".............",
"............."};
