/* XPM */
static char *close[]={
"13 12 4 1",
". c None",
"# c #303030",
"s c #ececec",
"d c #808080",
"sssssssssssss",
"ssssssssssssd",
"ss.........dd",
"ss##....##.dd",
"ss.##..##..dd",
"ss..####...dd",
"ss...##....dd",
"ss..####...dd",
"ss.##..##..dd",
"ss##....##.dd",
"sdddddddddddd",
"ddddddddddddd"};
