/* XPM */
static char *magick[] = {
/* columns rows colors chars-per-pixel */
"8 8 3 1",
"  c Gray0",
". c Gray75",
"X c #c9d3f2",
/* pixels */
"..    ..",
". X XX .",
" XX XXX ",
" XX XXX ",
" XX XXX ",
" XXXXXX ",
". XXXX .",
"..    .."
};
