/* XPM */
static char *magick[] = {
/* columns rows colors chars-per-pixel */
"14 16 3 1",
"  c Gray0",
". c White ",
"X c #c9d3f2",
/* pixels */
"..............",
"..............",
"..............",
"..............",
".....    .....",  
".... X XX ....",
"... XX XXX ...",
"... XX XXX ...",
"... XX XXX ...",
"... XXXXXX ...",
".... XXXX ....",
".....    .....",
"..............",
"..............",
"..............",
".............."
};
