/* XPM */
static char *magick[] = {
/* columns rows colors chars-per-pixel */
"20 17 7 1",
"  c Gray0",
". c Gray26",
"X c Red",
"o c Yellow",
"O c Gray68",
"+ c Gray87",
"@ c Gray75",
/* pixels */
"@@@@@@@@@@@@@@@@@@@@",
"@@@XX+XXX@XXXX @@@@@",
"@@@XX+XXX@XXXX.@@@@@",
"@@@@XXX..oXXooOooo@@",
"@@@@@ XOOoXXXX.ooo@@",
"@@@@@XXOOoXXXX.ooo@@",
"@@@@XXX..+XXOOO@@@@@",
"@@@XXOXXXOXXXX.@@@@@",
"@@@OOO@OOOOOOOO@@@@@",
"@@@@@@@@@@@@@@@@@@@@",
"@@@@@@@@@@@@@@@@@@@@",
"@  @ @@@  @@  @@ @ @",
"@ @ @ @ @@ @ @ @ @ @",
"@ @ @ @    @ @ @ @ @",
"@ @ @ @ @@@@ @ @ @ @",
"@ @ @ @@  @@ @ @@  @",
"@@@@@@@@@@@@@@@@@@@@"
};
