/* XPM */
static char *top[] = {
/* columns rows colors chars-per-pixel */
"16 16 175 2",
"   c #1B0000",
".  c #302E77",
"X  c #294272",
"o  c #325B77",
"O  c #315C76",
"+  c #335B78",
"@  c #6A2324",
"#  c #6D272A",
"$  c #7C2925",
"%  c #492F4F",
"&  c #503146",
"*  c #53364B",
"=  c #423F7E",
"-  c #40667D",
";  c #58747E",
":  c #60595C",
">  c #7A4F4E",
",  c #6B7577",
"<  c #7E6D64",
"1  c #013CB3",
"2  c #004CA3",
"3  c #034CA4",
"4  c #0C59A8",
"5  c #00609A",
"6  c #01679E",
"7  c #03669D",
"8  c #006D96",
"9  c #0E6D9D",
"0  c #0068A5",
"q  c #006AA6",
"w  c #056CA7",
"e  c #276788",
"r  c #3A708C",
"t  c #467187",
"y  c #5A7C83",
"u  c #3A82AA",
"i  c #3483BA",
"p  c #3C84B0",
"a  c #5D8A8C",
"s  c #4C85AD",
"d  c #598CB3",
"f  c #5893B8",
"g  c #668E8A",
"h  c #6C908B",
"j  c #6D908C",
"k  c #7A9083",
"l  c #6092AD",
"z  c #6293AF",
"x  c #6593B7",
"c  c #6797B4",
"v  c #6299BB",
"b  c #6895B0",
"n  c #699AB6",
"m  c #6C9AB5",
"M  c #7DA9A4",
"N  c #4DA5D9",
"B  c #6EA0C6",
"V  c #6FA1C7",
"C  c #6AA8C7",
"Z  c #71A4CD",
"A  c #73A4CC",
"S  c #74A4C9",
"D  c #7EACC2",
"F  c #7BA1EC",
"G  c #73B4EB",
"H  c #9D0605",
"J  c #B80000",
"K  c #8D4234",
"L  c #A34526",
"P  c #AB5232",
"I  c #BC5935",
"U  c #BD673D",
"Y  c #88756F",
"T  c #D41C00",
"R  c #DD1B00",
"E  c #D12300",
"W  c #DF2000",
"Q  c #E52C00",
"!  c #F42B00",
"~  c #FA2900",
"^  c #FF2D00",
"/  c #FF2F00",
"(  c #FF3100",
")  c #FF3600",
"_  c #FF3D00",
"`  c #D36334",
"'  c #FF4300",
"]  c #E2602C",
"[  c #EE6031",
"{  c #FF7930",
"}  c #FF7839",
"|  c #FE783B",
" . c #DD6B48",
".. c #86866D",
"X. c #868F79",
"o. c #8A8473",
"O. c #8A8979",
"+. c #99947F",
"@. c #B08D6F",
"#. c #FF8035",
"$. c #FF873D",
"%. c #F18549",
"&. c #FF8C40",
"*. c #889689",
"=. c #889996",
"-. c #929781",
";. c #A5BDA2",
":. c #BDB0AB",
">. c #B2BAB9",
",. c gray75",
"<. c #94B7CA",
"1. c #AAC3B5",
"2. c #ADC4BD",
"3. c #ABC8B1",
"4. c #ADD7B7",
"5. c #BBC1B1",
"6. c #BBC3B3",
"7. c #BBC5B3",
"8. c #BCC2B4",
"9. c #BFC4B6",
"0. c #BDCABD",
"q. c #B9D2BA",
"w. c #9FC6C2",
"e. c #ADC8C1",
"r. c #B0C2DE",
"t. c #B2D6C5",
"y. c #DEADAB",
"u. c #DFBBBF",
"i. c #E4AE98",
"p. c #F2B59D",
"a. c #C7C6B6",
"s. c #C1C0C1",
"d. c #C9C4C0",
"f. c #CBC5C3",
"g. c #C9C7C9",
"h. c #CDC9CD",
"j. c #C7C5D0",
"k. c #C9C6D1",
"l. c #CDCED6",
"z. c #C1D0D7",
"x. c #C6D1DE",
"c. c #CFD0D7",
"v. c #CED8DE",
"b. c #D2CAC9",
"n. c #D9D0D1",
"m. c #DBD7DD",
"M. c #C8D5E4",
"N. c #CEDAFA",
"B. c #DDDCF5",
"V. c #C4EBE1",
"C. c #DFE3EA",
"Z. c #DDE0F8",
"A. c #DEE1F8",
"S. c #DEE1F9",
"D. c #DEE1FB",
"F. c #DFE2F8",
"G. c #DFE2F9",
"H. c #DFE2FA",
"J. c #DAE8F7",
"K. c #E0E3FE",
"L. c #E3E4FD",
"P. c #E1E8F5",
"I. c #E1E9F5",
"U. c #E1EAF7",
"Y. c #E4E8F5",
"T. c #E1EAF8",
"R. c #EAE9F1",
"E. c #EEECF3",
"W. c #EAE8FD",
"Q. c #EAE8FE",
"!. c #ECEBFF",
"~. c #EFEBFF",
"^. c #E6F0FE",
"/. c #F6EFFF",
"(. c #FAF3F9",
/* pixels */
"p S B B B B B B B B V B B B S p ",
"S /.W.W.Q.Q.Q.Q.Q.Q.W.W.W.W./.S ",
"B W.A.A.A.A.A.A.B.A.A.A.A.A.W.B ",
"B W.A.P.N.T.P.N.T.A.C.B.A.A.W.B ",
"B W.D.M.&.k.M.&.j.Y.r.v R.A.W.V ",
"B W.D.y.|  .u.| ] V.F 8 l.L.W.V ",
"B !.t.&.R [ %.! ( w.i 7 s E.W.V ",
"V !.i.Q & ' E * _ I e - 5 l.~.B ",
"Z v.{ # M ~ H y P ) ; Y q s (.V ",
"C p.T j >.=   3.: ) U 4.+ 5 m.A ",
"f { @ 0.<.1 X.h.e.L ^ 1.o.q d D ",
"=.W j 6.N X 6.s.g.a ( ` t.+ 7 x ",
"> $ ;.G 3 ..g.,.e.2.L ) @.O.w 9 ",
"% k :.3 . 7.s.,.u.g.g J K q.O 4 ",
"r a.7.< -.h.f.a.a.g.a., *.n.+.t ",
"u b b n c l l l l d d m c l m u "
};
