/* XPM */
static char *magick[] = {
/* columns rows colors chars-per-pixel */
"16 16 6 1",
"  c Gray0",
". c Red",
"X c Yellow",
"o c #c6c742",
"O c #c0c0c0",
"+ c #ece9d8",
/* pixels */
"               +",
" o  oooo  oooo O",
" o  o  o  o    O",
" oooo  oooo    O",
"               O",
" ...  .....  . O",
"   .  .   .  . O",
"   ....   .... O",
"               O",
"               O",
"    XXXX  XXXX O",
"    X  X  X    O",
" XXXX  XXXX    O",
"               O",
"               O",
"+OOOOOOOOOOOOOOO"
};
