/* XPM */
static char *trace_socket_with_data_and_phase[] = {
/* columns rows colors chars-per-pixel */
"19 16 12 1",
"  c black",
". c #080000",
"X c #080408",
"o c #100408",
"O c gray50",
"+ c blue",
"@ c #00FF94",
"# c #00FF9C",
"$ c #8C8E8C",
"% c #BDBEBD",
"& c #FFFBF7",
"* c gray100",
/* pixels */
"                  %",
" **************** %",
" **************** $",
" *** o..X ******* $",
" *** ********#*** $",
" *** ***O*O*@#@** $",
" *** ***O*O*+++** $",
" *** ********+*** $",
" *** **&*****#*** $",
" *   ***O*O*##@** $",
" *******O*O*+++** $",
" ************+*** $",
" **************** $",
" **************** $",
"                  $",
"%%$$$$$$$$$$$$$$$$$"
};
