/* XPM */
static char *triangle[] = {
/* columns rows colors chars-per-pixel */
"11 11 3 1",
"  c black",
". c gray40",
"X c None",
/* pixels */
"XXXXX.XXXXX",
"XXXX. .XXXX",
"XXXX. .XXXX",
"XXX.   .XXX",
"XXX.   .XXX",
"XX.     .XX",
"XX.     .XX",
"X.       .X",
"X.       .X",
".         .",
"..........."
};
