/* XPM */
static char *magick[] = {
/* columns rows colors chars-per-pixel */
"17 19 86 1",
"  c #000100",
". c #010000",
"X c #000200",
"o c #030000",
"O c #030002",
"+ c #000400",
"@ c #000500",
"# c #000704",
"$ c #040000",
"% c #040300",
"& c #070000",
"* c #070302",
"= c #040500",
"- c #070707",
"; c #000b00",
": c #000d00",
"> c #000d01",
", c #020c03",
"< c #070a03",
"1 c #080000",
"2 c #090000",
"3 c #080300",
"4 c #090005",
"5 c #0c0402",
"6 c #0e0500",
"7 c #08060b",
"8 c #09070a",
"9 c #090b06",
"0 c #0f0a06",
"q c #0a0f08",
"w c #0f0e09",
"e c #0f0e0c",
"r c #001206",
"t c #001407",
"y c #001907",
"u c #0a100c",
"i c #0a1409",
"p c #0f1515",
"a c #110300",
"s c #100404",
"d c #100c09",
"f c #160d08",
"g c #121210",
"h c #1a1613",
"j c #191219",
"k c #191814",
"l c #181f17",
"z c #191f1f",
"x c #142118",
"c c #1d291d",
"v c #211b1d",
"b c #2c2723",
"n c #292a24",
"m c Red",
"M c #b3bcbb",
"N c #b8b7b5",
"B c #bdb7b7",
"V c #babcb7",
"C c #bebab7",
"Z c #b8bcbb",
"A c #bfbebc",
"S c Gray75",
"D c #bebcc1",
"F c #bfbdc0",
"G c #b7c1b9",
"H c #bec0bd",
"J c #bfc0c2",
"K c #bec4c4",
"L c #c1b8bd",
"P c #c2bebf",
"I c #c3bfbe",
"U c #c4bbbc",
"Y c #c4bfbc",
"T c #c1bac1",
"R c #c3bfc0",
"E c #c4bec0",
"W c #c4bec2",
"Q c #c6bfc6",
"! c #c2c1bd",
"~ c #c3c1c2",
"^ c #c4c0c1",
"/ c #c4c2c3",
"( c #c9c5c4",
") c #cbc7c4",
"_ c #cbc0c8",
"` c #cbc5c9",
/* pixels */
"SSSSSSSSSSSSSSSSS",
"SQTOPPI)hYSSS4L_S",
"S7F8Sek!.Cd$Bv`jS",
"SMzp HS nwSSg- JS",
"SKS#SSSSrSSSSuZSS",
"SENSSSSSSSSSSSSSS",
"S(9x%;;;;;;%%t+AS",
"S+%%%%;mmm%%%%%@S",
"SS>;%%;m%%%%%y:SS",
"SSS,@c;mmm0i+lSSS",
"SSGS=0;mi0%afSSSS",
"SSSSS<;mmm6bSSSSS",
"SSSSSSX%o3oSSSSSS",
"SSSSSSSSSSSSSSSSS",
"SWSSSSVSqSSSSSSSS",
"SDSSSS5S&S&SSSSSS",
"SSSSSSU1s2SSSSSSS",
"SSSSS~/P*R^SSSS/S",
"SSSSSSSSSSSSSSSSS"
};
