/* XPM */
static char *magick[] = {
/* columns rows colors chars-per-pixel */
"14 9 4 1",
"  c Blue",
". c Red",
"X c #868686",
"o c White",
/* pixels */
"oooo Xoo.Xoooo",
"ooo   X...Xooo",
"oo    .....Xoo",
"o    .......Xo",
"    .........X",
"o    .......Xo",
"oo    .....Xoo",
"ooo   X...Xooo",
"oooo Xoo.Xoooo"
};
