/* XPM */
static char *magick[] = {
/* columns rows colors chars-per-pixel */
"14 7 5 1",
"  c Blue",
". c #868686",
"X c White",
"o c #00ff99",
"O c Red",
/* pixels */
"         .XXXX",
"X       ooo.XX",
"XX     oooOOO.",
"XXX   oooOOO.X",
"XXXX .ooOOO.XX",
"XXXXXXo.OO.XXX",
"XXXXXXXXO.XXXX"
};
