/* XPM */
static char *magick[] = {
/* columns rows colors chars-per-pixel */
"18 8 2 1",
"  c #868686",
". c White",
/* pixels */
"                  ",
" ................ ",
" ................ ",
" ................ ",
" ................ ",
" ................ ",
" ................ ",
"                  "
};
