/* XPM */
static char *magick[] = {
/* columns rows colors chars-per-pixel */
"19 15 5 1",
"  c Gray0",
"W c White",
". c Blue",
"R c Red", 
"X c #bdbebd",
/* pixels */
"XXXXXXXXXXXXXXXXXXX",
"XXXXXXXXXXXXXXXXXXX",
"XXXX.XXXXXXX       ",
"XXXX..XXXRXXXXXXXXX",
"XX.....XRRRXX      ",
"X.XX..XXXRXXXXXXXXX",
".XXX.XXXXXXX       ",
".XXXXXXXXXXXXXXXXXX",
".XXXXX.XXXXX       ",
"X.XXX..XXRXXXXXXXXX",
"XX....XXRRRXXX     ",
"XXXXX..XXRXXXXXXXXX",
"XXXXXX.XXXXX       ",
"XXXXXXXXXXXXXXXXXXX",
"XXXXXXXXXXXXXXXXXXX"
};
