/* XPM */
static char *magick[] = {
/* columns rows colors chars-per-pixel */
"19 15 7 1",
"  c Gray0",
"W c White",
". c Blue",
"Y c Yellow",
"R c Red", 
"G c Green",
"X c #bdbebd",
/* pixels */
"XXXXXXXXXXXXXXXXXXX",
"XXXXXXXXXXXXXXXXXXX",
"XXXXX.XXXXXX       ",
"XXXX..XXXRXXXXXXXXX",  
"XX...XXXRRRXX      ",  
"X.XX..XXXRXXXXXXXXX",  
".XXXX.XXXXXX       ",  
".XXXXXXWWWWWWWWWWWW",  
".XXX.XXXRRRX       ",
"X.XX..XRRRRRYYYYYYY",
"XX.....RRRRRRY     ",
"XXXX..XRRRRRYYYYYYY",
"XXXX.XXXRRRY       ",
"XXXXXXXYYYYYYYYYYYY",
"XXXXXXXXXXXXXXXXXXX"
};        
  

