/* XPM */   
static char *magick[] = {
/* columns rows colors chars-per-pixel */
"19 16 11 1",
"  c Gray0",
". c red",
", c #040001",
"X c #070001",
"o c #0c0608",
"O c #100509",
"+ c #8c8e8c",
"@ c Gray75",
"# c #fefafb",
"$ c #fffeff",
"% c White",
/* pixels */
"                  @",
"..%%%%%%..%%%%%%% @",
" ..%%%%..%%%%%%%% +",
" %..%%..%%%%%%%%% +",
" %%....OXXo %%%%% +",
" %%%.. %%%% %%%%% +",
" %%....%%%% %%%%% +",
" %..%%..%%% %%%%% +",
" ..%%% ..$% %%%%% +",
" .%%%% %.#%,%%%%% +",
" %%%   %%%%   %%% +",
" %%%%%%%%%%%%%%%% +",
" %%%%%%%%%%%%%%%% +",
" %%%%%%%%%%%%%%%% +",
"                  +",
"@@+++++++++++++++++"
};          
            
            
            
            
