/* XPM */
static char *validate[] = {
/* columns rows colors chars-per-pixel */
"19 19 4 1",
"  c black",
". c #808080",
"X c #C0C0C0",
"o c gray100",
/* pixels */
".......... XXXXXXXX",
".ooooooooo  XXXXXXX",
".ooooooooo o XXXXXX",
".o..o.o..o oo XXXXX",
".ooooooooo     XXX ",
".oo.oo..oooooo XX  ",
".ooooooooooooo X  X",
".o..o.o.o.o..o   XX",
".oooooooooooo   XXX",
".o.o.ooooooo   XXXX",
".ooo    ooo    XXXX",
".o..o    o   o XXXX",
".ooooo       o XXXX",
".o...oo     oo XXXX",
".ooooooo   ooo XXXX",
".o.o.oo.o oooo XXXX",
".ooooooooooooo XXXX",
".              XXXX",
"XXXXXXXXXXXXXXXXXXX"
};
