/* XPM */
static char *magick[] = {
/* columns rows colors chars-per-pixel */
"15 6 4 1",
"  c #040404",
". c #868686",
"X c #c0c0c0",
"o c White",
/* pixels */
".......... oooo",
"o........ X ooo",
"oo...... XXX oo",
"ooo.... XXXXX o",
"oooo.. XXXXXXX ",
"ooooo.         "
};
