/* XPM */
static char *magick[] = {
/* columns rows colors chars-per-pixel */
"16 15 8 1",
"  c Gray0",
". c Blue",
"X c #008000",
"o c #ff8040",
"O c Yellow",
"+ c #808080",
"@ c White",
"# c None",
/* pixels */
"...............#",
"...............+",
"..ooooooooooo..+",
"..ooooooooooo..+",
"..ooooooooooo..+",
"..ooooooooooo..+",
"..OOOOOOXXXXX..+",
"..OOOOO@XXXXX..+",
"..OOOO@ @XXXX..+",
"..OOO@   @XXX..+",
"..OO@     @XX..+",
"...@       @...+",
".....#   #.....+",
"#++++#   #++++++",
"######   #######"
};
