/* XPM */
static char *magick[] = {
/* columns rows colors chars-per-pixel */
"26 22 24 1",
"  c Gray0",
". c #080000",
"X c #080408",
"o c Gray3",
"O c #080c10",
"+ c #100c10",
"@ c #101010",
"# c #847d84",
"$ c #848684",
"% c #8c8e8c",
"& c #948e94",
"* c #949694",
"= c #bdbabd",
"- c #bdbebd",
"; c #c6bec6",
": c #e7e3e7",
"> c #efefef",
", c #f7f3ef",
"< c #f7f3f7",
"1 c Gray97",
"2 c #f7ffff",
"3 c #fffbf7",
"4 c #fffbff",
"5 c White",
/* pixels */
"--------------------------",
"--------------------------",
"-----------------==-------",
"-----------------;;-------",
"------==------==-==-------",
"-----   XX          o-----",
"----- 54551455445515 -----",
"-----X< 5 o  X X  O5 -----",
"----- 55<5155<55454, -----",
"----- 5 4 X        4+-----",
"----- 5151<445555:44.-----",
"----- 5 5 555    @<4.-----",
"----- 15<51 44+X 54 .-----",
"----- 5 5<X45     44.-----",
"----- 515 545X  5 553 ----",
"-----X     51    @12 -----",
"-----=$*&%#+>5   51 ------",
"-------------   X --------",
"--------------------------",
"--------------------------",
"--------------------------",
"------==------------------"
};
