/* XPM */
static char *magick[] = {
/* columns rows colors chars-per-pixel */
"21 12 5 1",
"  c Gray0",
". c #8c8e8c",
"X c #bdbebd",
"o c #dedfde",
"O c White",
/* pixels */
"XXXXXXXXXXXXXXXXXXXXX",
"XXXXXXX       ..XXXXX",
"XXXXX  oo   oo  .XXXX",
"XXXX ooo     ooo .XXX",
"XXX ooo       ooo .XX",
"XX oooo       oooo .X",
"XX oooo   OO  oooo .X",
"XXX ooo       ooo .XX",
"XXXX ooo     ooo .XXX",
"XXXXX  oo   oo  .XXXX",
"XXXXXXX       ..XXXXX",
"XXXXXXXX......XXXXXXX"
};
