/* XPM */
static char *magick[] = {
/* columns rows colors chars-per-pixel */
"16 16 96 2",
"   c Gray0",
".  c #333434",
"X  c #3b3c3f",
"o  c #404144",
"O  c #474849",
"+  c #474c55",
"@  c Gray35",
"#  c #626261",
"$  c #636261",
"%  c #646565",
"&  c #6c6a66",
"*  c #6f766e",
"=  c #797963",
"-  c #737371",
";  c #737677",
":  c #747473",
">  c #747573",
",  c #747575",
"<  c #757574",
"1  c #787877",
"2  c #797978",
"3  c #a14d46",
"4  c #f80805",
"5  c #85846e",
"6  c #f5e610",
"7  c #f7ed56",
"8  c #f0e77f",
"9  c #888b8c",
"0  c #8a8d8e",
"q  c #919495",
"w  c #92989e",
"e  c #979ca1",
"r  c #9ca3a9",
"t  c #a6a399",
"y  c #a0a6ab",
"u  c #a4abaf",
"i  c #a5b4c6",
"p  c #a5b4c7",
"a  c #a5b5c7",
"s  c #a6b5c6",
"d  c #a1b4c8",
"f  c #a5b6cb",
"g  c #a7b6c8",
"h  c #a8b8ca",
"j  c #a9b9cd",
"k  c #acb9c9",
"l  c #adbaca",
"z  c #aebbcc",
"x  c #afbccb",
"c  c #acbfd5",
"v  c #b0bdcc",
"b  c #b3becc",
"n  c #b2c3d7",
"m  c #b6c2d0",
"M  c #b7c6d8",
"N  c #b6c7dc",
"B  c #b4c8dd",
"V  c #b6c9df",
"C  c #bac6d4",
"Z  c #b8c8d8",
"A  c #bccada",
"S  c #becbdb",
"D  c #bfccdb",
"F  c #bfcfe1",
"G  c #becee3",
"H  c #c4c092",
"J  c #c3c09c",
"K  c #e0dcbc",
"L  c #ebe58b",
"P  c #f8ef82",
"I  c #f1ea9f",
"U  c #f9f2be",
"Y  c #f9f4b8",
"T  c #fbf6bb",
"R  c #fbf6be",
"E  c #c0cddc",
"W  c #c1cedd",
"Q  c #d7d2c3",
"!  c #d9d4c1",
"~  c #dcd7c7",
"^  c #fbf6c1",
"/  c #fbf6c4",
"(  c #f8f3c8",
")  c #f6f0dc",
"_  c #faf5d3",
"`  c #faf4de",
"'  c #faf4df",
"]  c #faf4e0",
"[  c #fbf5e4",
"{  c #fcf9e0",
"}  c #fcf8ea",
"|  c #fcf8eb",
" . c #fdfbf3",
".. c #fdfbf4",
"X. c White",
"o. c None",
/* pixels */
"o.o.o.o.o.o.o.o.o.o.o.o.o.  o.o.",
"o.o.u 2 @ o @ 1 y o.o.o.      o.",
"o.q $ t Q ) Q t $ 0 o.o.o.  b E ",
"u $ ~ ] ] ] ] ] ~ $ e o.o.  C o.",
"2 t ] | }   ~ ] ] t < W o.  D o.",
"@ Q [  ...  ~ ] ] Q @ m o.  S o.",
"o ( _           U Y = v o.  A o.",
"@ K ^ { ~   ~ ~ ~ I 5 x       o.",
"1 t ` T '   ~ Y 7 H - l o.  k Z ",
"r $ ~ / R Y ~ 7 8 # ; z o.o.M o.",
"o.9 $ t ! P L J & , 4 + F o.o.o.",
"o.o.w > @ o @ : % 3 6 4 O G o.o.",
"o.o.o.n h a s i g X 3 6 4 O o.o.",
"o.o.o.o.o.o.o.o.o.N . 3 6 X j o.",
"o.o.o.o.o.o.o.o.o.o.V . . * p o.",
"o.o.o.o.o.o.o.o.o.o.o.B f d c o."
};
