/* XPM */
static char *magick[] = {
/* columns rows colors chars-per-pixel */
"16 16 91 1",
"  c Gray0",
". c #333434",
"X c #3b3c3f",
"o c #404144",
"O c #474849",
"+ c #474c55",
"@ c Gray35",
"# c #626261",
"$ c #636261",
"% c #646565",
"& c #6c6a66",
"* c #6f766e",
"= c #797963",
"- c #737371",
"; c #737677",
": c #747473",
"> c #747573",
", c #747575",
"< c #757574",
"1 c #787877",
"2 c #797978",
"3 c #a14d46",
"4 c #f80805",
"5 c #85846e",
"6 c #f5e610",
"7 c #f7ed56",
"8 c #f0e77f",
"9 c #888b8c",
"0 c #8a8d8e",
"q c #919495",
"w c #92989e",
"e c #979ca1",
"r c #9ca2a9",
"t c #a6a399",
"y c #a0a6ab",
"u c #a4abaf",
"i c #a2b4c7",
"p c #a5b5c6",
"a c #a5b5c7",
"s c #a5b7ca",
"d c #a7b6c8",
"f c #a9b8cb",
"g c #aabacd",
"h c #adbaca",
"j c #afbbca",
"k c #aebccc",
"l c #acbfd5",
"z c #b0bdcc",
"x c #b3c3d7",
"c c #b6c2d0",
"v c #b4c7de",
"b c #b7c7dc",
"n c #b6c9df",
"m c #bfcfe1",
"M c #c4c092",
"N c #c3c09c",
"B c #e0dcbc",
"V c #ebe58b",
"C c #f8ef82",
"Z c #f1ea9f",
"A c #f9f2be",
"S c #f9f4b8",
"D c #fbf6bb",
"F c #fbf6be",
"G c #c1cedd",
"H c #d7d2c3",
"J c #d9d4c1",
"K c #dcd7c7",
"L c #c0d4ed",
"P c #c7d7e9",
"I c #c8d8ea",
"U c #c9d8ea",
"Y c #fbf6c1",
"T c #fbf6c4",
"R c #f8f3c8",
"E c #f9f2c8",
"W c #f6f0dc",
"Q c #faf5d3",
"! c #faf4de",
"~ c #faf4df",
"^ c #faf4e0",
"/ c #fbf5e4",
"( c #fbf6e6",
") c #fbf6e7",
"_ c #fcf9e0",
"` c #fcf8ea",
"' c #fcf8eb",
"] c #fdfbf3",
"[ c #fdfbf4",
"{ c White",
"} c None",
/* pixels */
"}}}}}}}}}}}}}}}}",
"}}}u2@o@1y}}}}}}",
"}}q$tHWHt$0}}}}}",
"}u$K^^^^^K$e}}}}",
"}2t^'`)^^^t<G}}}",
"}@H/][(^^^H@c}}}",
"}oRQ     AS=z}}}",
"}@BY_KKKKKZ5jU}}",
"}1t!D~^EA7M-hI}}",
"}r$KTFAA78#;kP}}",
"}}9$tJCVN&,4+m}}",
"}}}w>@o@:%364O}}",
"}}}}xfapadX364O}",
"}}}}}}}}}}b.36Xg",
"}}}}}}}}}}}n..*a",
"}}}}}}}}}}}Lvsil"
};
