/* XPM */
static char *magick[] = {
/* columns rows colors chars-per-pixel */
"16 16 73 1",
"  c Gray0",
". c #333434",
"X c #353636",
"o c #3b3c3f",
"O c #3c3d40",
"+ c #474c55",
"@ c #565758",
"# c #58595a",
"$ c #606163",
"% c #616264",
"& c #7c7e7e",
"* c #a14d46",
"= c #f80805",
"- c #f5e610",
"; c #86878c",
": c #97a6b8",
"> c #a3b3c5",
", c #a7b6c7",
"< c #a5b6cb",
"1 c #a6b7cc",
"2 c #a7b8cc",
"3 c #aab7c8",
"4 c #aabacd",
"5 c #acb9c9",
"6 c #adbaca",
"7 c #afbac8",
"8 c #b5c2d1",
"9 c #b6c2d0",
"0 c #b0c3da",
"q c #b2c5db",
"w c #b4c7de",
"e c #b4c8dd",
"r c #bac6d4",
"t c #b9c9dd",
"y c #bfd5ed",
"u c #ebda93",
"i c #ebdb98",
"p c #ecdc9b",
"a c #ecdd9c",
"s c #eedfa4",
"d c #f0e4b0",
"f c #fbf7a8",
"g c #fbf7a9",
"h c #fbf8b0",
"j c #c5c5c3",
"k c #c6c6c4",
"l c #c7c7c5",
"z c #dbdbcd",
"x c #f5ecc9",
"c c #f8f2d8",
"v c #f9f2dc",
"b c #f9fad4",
"n c #f9fad5",
"m c #f9fada",
"M c #f9fadb",
"N c #fafbdc",
"B c #faf4e0",
"V c #fafbe2",
"C c #fbfbe6",
"Z c #fbf8ea",
"A c #fcfde9",
"S c #fdfdee",
"D c #fdfdf4",
"F c #fefef5",
"G c #fefcf9",
"H c #fefdf9",
"J c #fefdfb",
"K c #fefef8",
"L c #fefefa",
"P c #fefefd",
"I c #fffffe",
"U c White",
"Y c None",
/* pixels */
"    YYYYYYYY    ",
"   9YYYYYYYYY   ",
"   7YYYYYYYYY   ",
" 97 YYYYYYYY rr ",
"YYYrYY;$%%%YYrYr",
"YYYYY@znhDl+YYYY",
"YYYY&jbmAcdk$YYY",
"YYYY@znCKHvio8YY",
"YYYY@gNFIJBaO6YY",
"YYYY@fVLPGxuO5YY",
"YYYY&zMSZuuuo3YY",
"YYYYY+lpsu+=o,YY",
" YY Yt#XXo*-=otY",
"   rYYY4>>o*-o4Y",
"   2YYYYYYq..:1Y",
"    0YYYYYyw<<eY"
};
