/* XPM */
static char *magick[] = {
/* columns rows colors chars-per-pixel */
"16 16 87 1",
"  c Gray0",
". c #333434",
"X c #3b3c3f",
"o c #404144",
"O c #474849",
"+ c #474c55",
"@ c Gray35",
"# c #626261",
"$ c #636261",
"% c #646565",
"& c #6c6a66",
"* c #6f766e",
"= c #797963",
"- c #737371",
"; c #737677",
": c #747473",
"> c #747573",
", c #747575",
"< c #757574",
"1 c #787877",
"2 c #797978",
"3 c #a14d46",
"4 c #f80805",
"5 c #85846e",
"6 c #f5e610",
"7 c #f7ed56",
"8 c #f0e77f",
"9 c #888b8c",
"0 c #8a8d8e",
"q c #919495",
"w c #92989e",
"e c #979ca1",
"r c #9ca3a9",
"t c #a6a399",
"y c #a0a6ab",
"u c #a4abaf",
"i c #a5b4c6",
"p c #a5b4c7",
"a c #a5b5c7",
"s c #a6b5c6",
"d c #a1b4c8",
"f c #a5b6cb",
"g c #a7b6c8",
"h c #a8b8ca",
"j c #a9b9cd",
"k c #adbaca",
"l c #aebbcc",
"z c #afbccb",
"x c #acbfd5",
"c c #b0bdcc",
"v c #b2c3d7",
"b c #b6c2d0",
"n c #b6c7dc",
"m c #b4c8dd",
"M c #b6c9df",
"N c #bfcfe1",
"B c #becee3",
"V c #c4c092",
"C c #c3c09c",
"Z c #e0dcbc",
"A c #ebe58b",
"S c #f8ef82",
"D c #f1ea9f",
"F c #f9f2be",
"G c #f9f4b8",
"H c #fbf6bb",
"J c #fbf6be",
"K c #c1cedd",
"L c #d7d2c3",
"P c #d9d4c1",
"I c #dcd7c7",
"U c #fbf6c1",
"Y c #fbf6c4",
"T c #f8f3c8",
"R c #f6f0dc",
"E c #faf5d3",
"W c #faf4de",
"Q c #faf4df",
"! c #faf4e0",
"~ c #fbf5e4",
"^ c #fcf9e0",
"/ c #fcf8ea",
"( c #fcf8eb",
") c #fdfbf3",
"_ c #fdfbf4",
"` c White",
"' c None",
/* pixels */
"''''''''''''''''",
"'''u2@o@1y''''''",
"''q$tLRLt$0'''''",
"'u$I!!!!!I$e''''",
"'2t!(/ I!!t<K'''",
"'@L~)_ I!!L@b'''",
"'oTE     FG=c'''",
"'@ZU^I IIID5z'''",
"'1tWHQ IG7V-k'''",
"'r$IYJGI78#;l'''",
"''9$tPSAC&,4+N''",
"'''w>@o@:%364OB'",
"''''vhasigX364O'",
"''''''''''n.36Xj",
"'''''''''''M..*p",
"''''''''''''mfdx"
};
