/* XPM */
static char *magick[] = {
/* columns rows colors chars-per-pixel */
"16 16 115 2",
"   c Gray0",
".  c #060605",
"X  c #080809",
"o  c #120d10",
"O  c #131614",
"+  c #17191a",
"@  c #212325",
"#  c #222527",
"$  c #333434",
"%  c #3b3c3f",
"&  c #45443c",
"*  c #404144",
"=  c #474849",
"-  c #4a4b4b",
";  c #4c4e4c",
":  c #474c55",
">  c #4e5355",
",  c #59574d",
"<  c Gray35",
"1  c #5f6364",
"2  c #6f6e5d",
"3  c #626261",
"4  c #636261",
"5  c #646565",
"6  c #6c6a66",
"7  c #6f766e",
"8  c #706e65",
"9  c #797963",
"0  c #7b796c",
"q  c #737371",
"w  c #737677",
"e  c #747473",
"r  c #747573",
"t  c #747575",
"y  c #787877",
"u  c #797978",
"i  c #a14d46",
"p  c #f80805",
"a  c #85846e",
"s  c #f5e610",
"d  c #f7ed56",
"f  c #f0e77f",
"g  c #888b8c",
"h  c #989681",
"j  c #919495",
"k  c #92989e",
"l  c #959a9f",
"z  c #9ca3a9",
"x  c #a29f8d",
"c  c #a6a399",
"v  c #a4abaf",
"b  c #bdb8aa",
"n  c #a5b4c6",
"m  c #a5b4c7",
"M  c #a5b5c7",
"N  c #a6b5c6",
"B  c #a1b4c8",
"V  c #a5b6cb",
"C  c #a7b6c8",
"Z  c #a8b8ca",
"A  c #a9b9cd",
"S  c #adbaca",
"D  c #aebbcc",
"F  c #afbccb",
"G  c #acbfd5",
"H  c #b0bdcc",
"J  c #b2c3d7",
"K  c #b6c2d0",
"L  c #b6c7dc",
"P  c #b4c8dd",
"I  c #b6c9df",
"U  c #bbcde1",
"Y  c #bfcfe1",
"T  c #becee3",
"R  c #c2be9f",
"E  c #c0bcb3",
"W  c #c4c092",
"Q  c #c3c09c",
"!  c #c6c09d",
"~  c #c6c2a5",
"^  c #d8d2ad",
"/  c #dbd5ac",
"(  c #e0dcbc",
")  c #ebe58b",
"_  c #f8ef82",
"`  c #f1ea9f",
"'  c #f9f2be",
"]  c #f9f4b8",
"[  c #fbf6bb",
"{  c #fbf6be",
"}  c #c2cac7",
"|  c #c0ccd9",
" . c #d7d2c3",
".. c #d9d4c1",
"X. c #dcd7c7",
"o. c #dcdfce",
"O. c #c5d2e0",
"+. c #d5e4f3",
"@. c #eae5d3",
"#. c #f5efda",
"$. c #fbf6c1",
"%. c #fbf6c4",
"&. c #f8f3c8",
"*. c #f9f2c8",
"=. c #faf5d3",
"-. c #faf4de",
";. c #faf4df",
":. c #faf4e0",
">. c #fbf5e4",
",. c #fcf9e0",
"<. c #fcf8ea",
"1. c #fcf8eb",
"2. c #fdfbf3",
"3. c White",
"4. c None",
/* pixels */
"4.4.4.4.4.4.4.4.4.4.4.4.4.4.4.4.",
"4.4.4.v u < - / 0 ; @ + # | 4.4.",
"4.4.j 4 c  .#.x & o 2 h 1 > O.4.",
"4.v 4 X.:.:.@.8 O , ! ^ } l X 4.",
"4.u c :.1.<.E . . b ~ R o.+.4.4.",
"4.<  .>.2.            < K 4.4.4.",
"4.* &.=.:.:.        ] 9 H 4.4.4.",
"4.< ( $.,.:.:.    ' ` a F 4.4.4.",
"4.y c -.[ ;.:.*.' d W q S 4.4.4.",
"4.z 4 X.%.{ ' ' d f 3 w D 4.4.4.",
"4.4.g 4 c .._ ) Q 6 t p : Y 4.4.",
"4.4.4.k r < * < e 5 i s p = T 4.",
"4.4.4.4.J Z M N n C % i s p = U ",
"4.4.4.4.4.4.4.4.4.4.L $ i s % A ",
"4.4.4.4.4.4.4.4.4.4.4.I $ $ 7 m ",
"4.4.4.4.4.4.4.4.4.4.4.4.P V B G "
};
