/* XPM */
/*sccsid = "@(#)sccs get -r14.1 /home/hdldraw/sccs/VisualElite/runtime/tcl/GUI/Images/s.copy.xpm"*/
static char *magick[] = {
/* columns rows colors chars-per-pixel */
"16 16 14 1",
"  c Gray75",
". c Gray0",
"X c #dee1f8",
"o c #8d8d8d",
"O c #c9d3f2",
"+ c White",
"@ c #bcc1e8",
"# c #a9aae1",
"$ c #fbf3dd",
"% c #94a2e2",
"& c #f6ebd0",
"* c #f0d5c6",
"= c #ffd7af",
"- c #ddca99",
/* pixels */
"                ",
"                ",
"......          ",
".XXXX..o        ",
".XXXX.X.o       ",
".O..O.......    ",
".OOOOO.++++..   ",
".@.....++++.+.  ",
".@@@@@.+..+.... ",
".#.....$$$$$$$.o",
".%%%%%.&.....&.o",
".......*******.o",
" ooooo.=.....=.o",
"      .-------.o",
"      .........o",
"       ooooooooo"
};
