/* XPM */
/*sccsid = "@(#)sccs get -r14.1 /home/hdldraw/sccs/VisualElite/runtime/tcl/GUI/Images/s.cmg_del.xpm"*/
static char *magick[] = {
/* columns rows colors chars-per-pixel */
"16 16 4 1",
"  c Gray75",
". c Gray0",
"X c Red",
"o c #8d8d8d",
/* pixels */
"                ",
"                ",
" ...         .  ",
" .XX.      X.oo ",
"  ..X.    X.oo  ",
"   o.X.  X.oo   ",
"    o.X.X.oo    ",
"     o.XXoo     ",
"     .X..X      ",
"    .X.oo.X     ",
"   .X.oo  .X    ",
"  .X.oo   o.    ",
" .XX.o     o.   ",
" .X.oo      oo  ",
"  .oo        .  ",
"  oo            "
};
