/* XPM */
/* sccsid  @(#)print.xpm	14.1  Inoveda Ltd   11/03/03 */
static char *magick[] = {
/* columns rows colors chars-per-pixel */
"16 16 20 1",
"  c Gray75",
". c Gray0",
"X c White",
"o c #8d8d8d",
"O c #e0ede0",
"+ c #dfc013",
"@ c #d8c801",
"# c #e2dc1f",
"$ c #fdfd8b",
"% c #ffff66",
"& c #f0ea5c",
"* c #e2db46",
"= c #8fa519",
"- c #95c436",
"; c #fad98e",
": c #dbd573",
"> c #edd033",
", c #c8c41b",
"< c #dc9902",
"1 c #88830a",
/* pixels */
"                ",
"     ........   ",
"    .XXXXXXX.   ",
"    .X....X.o   ",
"   .OOOXXXX.o   ",
"   .O....OO...  ",
"  .OOOOOOO.+@@. ",
" .........#+@..o",
".$$$$$$%&*#+.=.o",
"............-=.o",
".;:*>,@@$@@.-.o ",
".;:*>,@@@@@...o ",
"............=.o ",
" .@@@@<=11.-.o  ",
"  ..........o   ",
"   ooooooooo    "
};
