/* XPM */
static char *magick[] = {
/* columns rows colors chars-per-pixel */
"16 16 5 1",
"  c Gray75",
". c Gray0",
"X c #8d8d8d",
"o c #bcbcff",
"O c #8887fd",
/* pixels */
"                ",
"                ",
"                ",
"                ",
"        ....    ",
"  .   ..XXXX.   ",
"  .. .XX    X.  ",
"  .o.X       .X ",
"  .OO.X      .X ",
"  .....X    .X  ",
"   XXXXX    .X  ",
"                ",
"                ",
"                ",
"                ",
"                "
};
